<?xml version="1.0" standalone="no"?><!-- Generator: Gravit.io --><svg xmlns="http://www.w3.org/2000/svg" xmlns:xlink="http://www.w3.org/1999/xlink" style="isolation:isolate" viewBox="0 0 300 300" width="300" height="300"><defs><clipPath id="_clipPath_qdye5Ub00p9p7g5XP1hh9ohFd7caO4Pe"><rect width="300" height="300"/></clipPath></defs><g clip-path="url(#_clipPath_qdye5Ub00p9p7g5XP1hh9ohFd7caO4Pe)"><g id="Group"><g id="Group"/></g><g id="Group"><g id="Group"><path d=" M 25 150 C 25 81.011 81.011 25 150 25 C 218.989 25 275 81.011 275 150 C 275 218.989 218.989 275 150 275 C 81.011 275 25 218.989 25 150 Z " fill="none" vector-effect="non-scaling-stroke" stroke-width="5" stroke="rgb(255,255,255)" stroke-linejoin="miter" stroke-linecap="square" stroke-miterlimit="3"/><path d=" M 229.605 66.591 C 228.444 66.465 227.492 65.402 227.617 64.243 C 227.742 63.084 228.795 62.236 230.06 62.373 C 231.324 62.509 232.174 63.562 232.049 64.721 C 231.924 65.88 230.764 66.716 229.605 66.591 Z  M 258.038 58.039 C 257.991 56.325 257.095 54.845 255.833 53.639 L 255.344 53.159 L 254.854 53.639 C 253.911 54.499 253.398 56.149 253.364 57.421 C 253.363 58.384 253.567 59.365 254.022 60.161 C 253.566 60.326 253.008 60.48 252.578 60.644 C 251.576 60.856 250.622 60.861 249.68 60.759 L 222.43 57.819 L 222.26 58.439 C 221.84 60.422 221.919 62.561 222.567 64.553 L 222.91 65.337 L 222.899 65.439 C 224.991 69.932 229.32 72.316 234.261 72.849 C 243.761 73.874 251.998 70.607 256.647 62.15 C 259.055 62.518 261.568 62.148 262.964 59.954 L 263.327 59.46 L 262.852 59.089 C 261.567 58.1 259.694 57.787 258.069 58.039 L 258.038 58.039 Z  M 244.62 54.882 L 240.497 54.437 L 240.053 58.551 L 244.179 58.996 L 244.623 54.88 L 244.62 54.882 Z  M 245.177 49.717 L 241.054 49.272 L 240.611 53.38 L 244.737 53.826 L 245.18 49.72 L 245.177 49.717 Z  M 245.746 44.445 L 241.623 44 L 241.18 48.108 L 245.306 48.553 L 245.749 44.448 L 245.746 44.445 Z  M 249.663 55.427 L 245.565 54.984 L 245.121 59.098 L 249.232 59.541 L 249.676 55.425 L 249.663 55.427 Z  M 234.381 53.777 L 230.283 53.335 L 229.839 57.448 L 233.95 57.892 L 234.394 53.776 L 234.381 53.777 Z  M 239.526 54.333 L 235.451 53.893 L 235.007 58.006 L 239.108 58.449 L 239.552 54.333 L 239.526 54.333 Z  M 229.287 53.228 L 225.215 52.788 L 224.771 56.901 L 228.897 57.347 L 229.341 53.231 L 229.287 53.228 Z  M 240.084 49.167 L 236.008 48.728 L 235.565 52.836 L 239.666 53.278 L 240.109 49.173 L 240.084 49.167 Z  M 234.913 48.609 L 230.838 48.17 L 230.395 52.278 L 234.495 52.72 L 234.938 48.615 L 234.913 48.609 Z " fill="rgb(255,255,255)"/><path d=" M 53.605 242.591 C 52.444 242.465 51.492 241.402 51.617 240.243 C 51.742 239.084 52.795 238.236 54.06 238.373 C 55.324 238.509 56.174 239.562 56.049 240.721 C 55.924 241.88 54.764 242.716 53.605 242.591 Z  M 82.038 234.039 C 81.991 232.325 81.095 230.845 79.833 229.639 L 79.344 229.159 L 78.854 229.639 C 77.911 230.499 77.398 232.149 77.364 233.421 C 77.363 234.384 77.567 235.365 78.022 236.161 C 77.566 236.326 77.008 236.48 76.578 236.644 C 75.576 236.856 74.622 236.861 73.68 236.759 L 46.43 233.819 L 46.26 234.439 C 45.84 236.422 45.919 238.561 46.567 240.553 L 46.91 241.337 L 46.899 241.439 C 48.991 245.932 53.32 248.316 58.261 248.849 C 67.761 249.874 75.998 246.607 80.647 238.15 C 83.055 238.518 85.568 238.148 86.964 235.954 L 87.327 235.46 L 86.852 235.089 C 85.567 234.1 83.694 233.787 82.069 234.039 L 82.038 234.039 Z  M 68.62 230.882 L 64.497 230.437 L 64.053 234.551 L 68.179 234.996 L 68.623 230.88 L 68.62 230.882 Z  M 69.177 225.717 L 65.054 225.272 L 64.611 229.38 L 68.737 229.826 L 69.18 225.72 L 69.177 225.717 Z  M 69.746 220.445 L 65.623 220 L 65.18 224.108 L 69.306 224.553 L 69.749 220.448 L 69.746 220.445 Z  M 73.663 231.427 L 69.565 230.984 L 69.121 235.098 L 73.232 235.541 L 73.676 231.425 L 73.663 231.427 Z  M 58.381 229.777 L 54.283 229.335 L 53.839 233.448 L 57.95 233.892 L 58.394 229.776 L 58.381 229.777 Z  M 63.526 230.333 L 59.451 229.893 L 59.007 234.006 L 63.108 234.449 L 63.552 230.333 L 63.526 230.333 Z  M 53.287 229.228 L 49.215 228.788 L 48.771 232.901 L 52.897 233.347 L 53.341 229.231 L 53.287 229.228 Z  M 64.084 225.167 L 60.008 224.728 L 59.565 228.836 L 63.666 229.278 L 64.109 225.173 L 64.084 225.167 Z  M 58.913 224.609 L 54.838 224.17 L 54.395 228.278 L 58.495 228.72 L 58.938 224.615 L 58.913 224.609 Z " fill="rgb(255,255,255)"/><path d=" M 130.436 165.72 L 130.436 165.72 Q 126.644 165.72 123.62 163.992 L 123.62 163.992 L 123.62 163.992 Q 120.596 162.264 118.892 159.216 L 118.892 159.216 L 118.892 159.216 Q 117.188 156.168 117.188 152.424 L 117.188 152.424 L 117.188 152.424 Q 117.188 148.584 118.844 145.536 L 118.844 145.536 L 118.844 145.536 Q 120.5 142.488 123.476 140.784 L 123.476 140.784 L 123.476 140.784 Q 126.452 139.08 130.196 139.08 L 130.196 139.08 L 130.196 139.08 Q 135.86 139.08 139.604 143.4 L 139.604 143.4 L 139.604 143.4 Q 140.084 143.928 140.084 144.648 L 140.084 144.648 L 140.084 144.648 Q 140.084 145.704 139.028 146.424 L 139.028 146.424 L 139.028 146.424 Q 138.548 146.76 137.924 146.76 L 137.924 146.76 L 137.924 146.76 Q 136.82 146.76 136.052 145.896 L 136.052 145.896 L 136.052 145.896 Q 134.852 144.6 133.436 144 L 133.436 144 L 133.436 144 Q 132.02 143.4 130.196 143.4 L 130.196 143.4 L 130.196 143.4 Q 126.5 143.4 124.196 145.872 L 124.196 145.872 L 124.196 145.872 Q 121.892 148.344 121.892 152.424 L 121.892 152.424 L 121.892 152.424 Q 121.892 155.016 122.972 157.056 L 122.972 157.056 L 122.972 157.056 Q 124.052 159.096 125.996 160.248 L 125.996 160.248 L 125.996 160.248 Q 127.94 161.4 130.436 161.4 L 130.436 161.4 L 130.436 161.4 Q 133.7 161.4 135.716 159.72 L 135.716 159.72 L 135.716 159.72 Q 136.628 159.048 137.492 159.048 L 137.492 159.048 L 137.492 159.048 Q 138.164 159.048 138.74 159.48 L 138.74 159.48 L 138.74 159.48 Q 139.652 160.248 139.652 161.208 L 139.652 161.208 L 139.652 161.208 Q 139.652 161.928 139.076 162.504 L 139.076 162.504 L 139.076 162.504 Q 135.62 165.72 130.436 165.72 L 130.436 165.72 L 130.436 165.72 Z  M 167.204 162.072 L 167.204 162.072 Q 167.732 162.648 167.732 163.512 L 167.732 163.512 L 167.732 163.512 Q 167.732 164.568 166.868 165.288 L 166.868 165.288 L 166.868 165.288 Q 166.148 165.864 165.332 165.864 L 165.332 165.864 L 165.332 165.864 Q 164.276 165.864 163.604 165 L 163.604 165 L 154.484 153.72 L 152.084 155.832 L 152.084 163.176 L 152.084 163.176 Q 152.084 164.232 151.436 164.88 L 151.436 164.88 L 151.436 164.88 Q 150.788 165.528 149.732 165.528 L 149.732 165.528 L 149.732 165.528 Q 148.676 165.528 148.028 164.88 L 148.028 164.88 L 148.028 164.88 Q 147.38 164.232 147.38 163.176 L 147.38 163.176 L 147.38 130.392 L 147.38 130.392 Q 147.38 129.336 148.028 128.688 L 148.028 128.688 L 148.028 128.688 Q 148.676 128.04 149.732 128.04 L 149.732 128.04 L 149.732 128.04 Q 150.788 128.04 151.436 128.688 L 151.436 128.688 L 151.436 128.688 Q 152.084 129.336 152.084 130.392 L 152.084 130.392 L 152.084 149.928 L 163.748 139.512 L 163.748 139.512 Q 164.372 138.888 165.236 138.888 L 165.236 138.888 L 165.236 138.888 Q 166.244 138.888 166.868 139.656 L 166.868 139.656 L 166.868 139.656 Q 167.492 140.28 167.492 141.144 L 167.492 141.144 L 167.492 141.144 Q 167.492 142.152 166.724 142.776 L 166.724 142.776 L 157.892 150.648 L 167.204 162.072 L 167.204 162.072 Z  M 198.26 151.992 L 198.26 151.992 Q 198.26 152.904 197.636 153.504 L 197.636 153.504 L 197.636 153.504 Q 197.012 154.104 196.052 154.104 L 196.052 154.104 L 177.812 154.104 L 177.812 154.104 Q 178.34 157.464 180.86 159.528 L 180.86 159.528 L 180.86 159.528 Q 183.38 161.592 187.028 161.592 L 187.028 161.592 L 187.028 161.592 Q 188.468 161.592 190.028 161.064 L 190.028 161.064 L 190.028 161.064 Q 191.588 160.536 192.596 159.768 L 192.596 159.768 L 192.596 159.768 Q 193.268 159.24 194.18 159.24 L 194.18 159.24 L 194.18 159.24 Q 195.092 159.24 195.62 159.72 L 195.62 159.72 L 195.62 159.72 Q 196.484 160.44 196.484 161.352 L 196.484 161.352 L 196.484 161.352 Q 196.484 162.216 195.716 162.792 L 195.716 162.792 L 195.716 162.792 Q 194.084 164.088 191.66 164.904 L 191.66 164.904 L 191.66 164.904 Q 189.236 165.72 187.028 165.72 L 187.028 165.72 L 187.028 165.72 Q 183.092 165.72 179.972 164.016 L 179.972 164.016 L 179.972 164.016 Q 176.852 162.312 175.1 159.288 L 175.1 159.288 L 175.1 159.288 Q 173.348 156.264 173.348 152.424 L 173.348 152.424 L 173.348 152.424 Q 173.348 148.584 175.004 145.536 L 175.004 145.536 L 175.004 145.536 Q 176.66 142.488 179.612 140.784 L 179.612 140.784 L 179.612 140.784 Q 182.564 139.08 186.308 139.08 L 186.308 139.08 L 186.308 139.08 Q 190.004 139.08 192.692 140.712 L 192.692 140.712 L 192.692 140.712 Q 195.38 142.344 196.82 145.272 L 196.82 145.272 L 196.82 145.272 Q 198.26 148.2 198.26 151.992 L 198.26 151.992 L 198.26 151.992 Z  M 186.308 143.208 L 186.308 143.208 Q 182.804 143.208 180.62 145.128 L 180.62 145.128 L 180.62 145.128 Q 178.436 147.048 177.86 150.264 L 177.86 150.264 L 193.844 150.264 L 193.844 150.264 Q 193.412 147.048 191.444 145.128 L 191.444 145.128 L 191.444 145.128 Q 189.476 143.208 186.308 143.208 L 186.308 143.208 L 186.308 143.208 Z  M 217.364 138.984 L 217.364 138.984 Q 219.908 138.984 221.348 139.752 L 221.348 139.752 L 221.348 139.752 Q 222.788 140.52 222.788 141.672 L 222.788 141.672 L 222.788 141.672 Q 222.788 142.008 222.74 142.152 L 222.74 142.152 L 222.74 142.152 Q 222.308 143.688 220.82 143.688 L 220.82 143.688 L 220.82 143.688 Q 220.58 143.688 220.1 143.592 L 220.1 143.592 L 220.1 143.592 Q 218.18 143.256 216.98 143.256 L 216.98 143.256 L 216.98 143.256 Q 213.524 143.256 211.412 144.84 L 211.412 144.84 L 211.412 144.84 Q 209.3 146.424 209.3 149.112 L 209.3 149.112 L 209.3 163.128 L 209.3 163.128 Q 209.3 164.28 208.7 164.904 L 208.7 164.904 L 208.7 164.904 Q 208.1 165.528 206.9 165.528 L 206.9 165.528 L 206.9 165.528 Q 205.748 165.528 205.124 164.928 L 205.124 164.928 L 205.124 164.928 Q 204.5 164.328 204.5 163.128 L 204.5 163.128 L 204.5 141.672 L 204.5 141.672 Q 204.5 140.52 205.124 139.896 L 205.124 139.896 L 205.124 139.896 Q 205.748 139.272 206.9 139.272 L 206.9 139.272 L 206.9 139.272 Q 209.3 139.272 209.3 141.672 L 209.3 141.672 L 209.3 142.584 L 209.3 142.584 Q 210.74 140.904 212.852 139.944 L 212.852 139.944 L 212.852 139.944 Q 214.964 138.984 217.364 138.984 L 217.364 138.984 L 217.364 138.984 Z  M 247.892 139.512 L 247.892 139.512 Q 249.38 140.088 249.38 141.384 L 249.38 141.384 L 249.38 141.384 Q 249.38 141.864 249.092 142.536 L 249.092 142.536 L 234.404 175.56 L 234.404 175.56 Q 233.828 177.048 232.532 177.048 L 232.532 177.048 L 232.532 177.048 Q 232.052 177.048 231.38 176.76 L 231.38 176.76 L 231.38 176.76 Q 229.94 176.136 229.94 174.888 L 229.94 174.888 L 229.94 174.888 Q 229.94 174.312 230.228 173.736 L 230.228 173.736 L 235.028 162.936 L 224.228 142.44 L 224.228 142.44 Q 223.988 142.008 223.988 141.432 L 223.988 141.432 L 223.988 141.432 Q 223.988 140.808 224.372 140.28 L 224.372 140.28 L 224.372 140.28 Q 224.756 139.752 225.38 139.464 L 225.38 139.464 L 225.38 139.464 Q 225.812 139.272 226.34 139.272 L 226.34 139.272 L 226.34 139.272 Q 227.684 139.272 228.356 140.616 L 228.356 140.616 L 237.14 158.088 L 244.868 140.664 L 244.868 140.664 Q 245.492 139.272 246.74 139.272 L 246.74 139.272 L 246.74 139.272 Q 247.364 139.272 247.892 139.512 L 247.892 139.512 L 247.892 139.512 Z  M 55.796 165.528 L 55.796 165.528 Q 54.74 165.528 54.02 164.808 L 54.02 164.808 L 54.02 164.808 Q 53.3 164.088 53.3 163.032 L 53.3 163.032 L 53.3 130.536 L 53.3 130.536 Q 53.3 129.432 54.02 128.736 L 54.02 128.736 L 54.02 128.736 Q 54.74 128.04 55.796 128.04 L 55.796 128.04 L 64.484 128.04 L 64.484 128.04 Q 69.908 128.04 74.132 130.44 L 74.132 130.44 L 74.132 130.44 Q 78.356 132.84 80.708 137.088 L 80.708 137.088 L 80.708 137.088 Q 83.06 141.336 83.06 146.76 L 83.06 146.76 L 83.06 146.76 Q 83.06 152.184 80.708 156.456 L 80.708 156.456 L 80.708 156.456 Q 78.356 160.728 74.132 163.128 L 74.132 163.128 L 74.132 163.128 Q 69.908 165.528 64.484 165.528 L 64.484 165.528 L 55.796 165.528 L 55.796 165.528 Z  M 58.292 161.112 L 64.484 161.112 L 64.484 161.112 Q 68.468 161.112 71.612 159.288 L 71.612 159.288 L 71.612 159.288 Q 74.756 157.464 76.508 154.176 L 76.508 154.176 L 76.508 154.176 Q 78.26 150.888 78.26 146.76 L 78.26 146.76 L 78.26 146.76 Q 78.26 142.632 76.508 139.368 L 76.508 139.368 L 76.508 139.368 Q 74.756 136.104 71.612 134.28 L 71.612 134.28 L 71.612 134.28 Q 68.468 132.456 64.484 132.456 L 64.484 132.456 L 58.292 132.456 L 58.292 161.112 L 58.292 161.112 Z " fill-rule="evenodd" fill="rgb(255,255,255)"/><path d=" M 100.696 142.29 C 104.57 142.29 107.82 145.279 108.807 149.361 C 109.067 150.401 109.977 151.129 111.043 151.129 L 111.043 151.129 C 112.525 151.129 113.643 149.751 113.331 148.295 C 111.901 141.796 106.78 136.96 100.696 136.96 C 94.638 136.96 89.543 141.744 88.061 148.191 C 87.723 149.647 88.841 151.025 90.323 151.025 L 90.323 151.025 C 91.388 151.025 92.324 150.297 92.584 149.283 C 93.598 145.253 96.848 142.29 100.696 142.29 Z " fill="rgb(255,255,255)"/><path d=" M 100.696 161.736 C 96.822 161.736 93.572 158.747 92.584 154.665 C 92.324 153.625 91.414 152.897 90.349 152.897 L 90.349 152.897 C 88.867 152.897 87.749 154.275 88.061 155.731 C 89.491 162.23 94.612 167.04 100.696 167.04 C 106.754 167.04 111.849 162.282 113.305 155.809 C 113.643 154.353 112.525 152.975 111.043 152.975 L 111.043 152.975 C 109.977 152.975 109.041 153.703 108.781 154.717 C 107.794 158.773 104.544 161.736 100.696 161.736 Z " fill="rgb(255,255,255)"/><path d=" M 94.534 152.143 C 94.534 148.355 97.295 145.279 100.696 145.279 C 104.097 145.279 106.858 148.355 106.858 152.143 C 106.858 155.931 104.097 159.007 100.696 159.007 C 97.295 159.007 94.534 155.931 94.534 152.143 Z " fill="rgb(255,255,255)"/><path d=" M 218.398 197.795 C 212.525 197.795 207.763 193.033 207.763 187.159 C 207.763 181.285 212.525 176.523 218.398 176.523 C 224.272 176.523 229.034 181.285 229.034 187.159 C 229.034 193.033 224.272 197.795 218.398 197.795 Z  M 218.398 193.399 C 221.844 193.399 224.638 190.605 224.638 187.159 C 224.638 183.713 221.844 180.919 218.398 180.919 C 214.952 180.919 212.159 183.713 212.159 187.159 C 212.159 190.605 214.952 193.399 218.398 193.399 Z  M 196.134 197.795 C 190.26 197.795 185.498 193.033 185.498 187.159 C 185.498 181.285 190.26 176.523 196.134 176.523 C 202.008 176.523 206.77 181.285 206.77 187.159 C 206.77 193.033 202.008 197.795 196.134 197.795 Z  M 196.134 193.399 C 199.58 193.399 202.374 190.605 202.374 187.159 C 202.374 183.713 199.58 180.919 196.134 180.919 C 192.688 180.919 189.894 183.713 189.894 187.159 C 189.894 190.605 192.688 193.399 196.134 193.399 Z  M 184.506 187.017 C 184.506 192.964 179.742 197.795 173.868 197.795 C 167.995 197.795 163.234 192.974 163.234 187.027 C 163.234 181.08 167.559 176.523 173.868 176.523 C 176.2 176.523 178.356 177.019 180.109 178.307 L 180.109 172.14 C 180.109 170.958 181.14 170 182.308 170 C 183.474 170 184.506 170.959 184.506 172.14 L 184.506 187.017 Z  M 173.87 193.399 C 177.316 193.399 180.109 190.605 180.109 187.159 C 180.109 183.713 177.316 180.919 173.87 180.919 C 170.424 180.919 167.63 183.713 167.63 187.159 C 167.63 190.605 170.424 193.399 173.87 193.399 Z " fill="rgb(255,255,255)"/><path d=" M 151.605 197.795 C 145.731 197.795 140.97 193.033 140.97 187.159 C 140.97 181.285 145.731 176.523 151.605 176.523 C 157.479 176.523 162.241 181.285 162.241 187.159 C 162.241 193.033 157.479 197.795 151.605 197.795 Z  M 151.605 193.399 C 155.051 193.399 157.845 190.605 157.845 187.159 C 157.845 183.713 155.051 180.919 151.605 180.919 C 148.159 180.919 145.366 183.713 145.366 187.159 C 145.366 190.605 148.159 193.399 151.605 193.399 Z " fill="rgb(255,255,255)"/></g></g></g></svg>