<?xml version="1.0" standalone="no"?><!-- Generator: Gravit.io --><svg xmlns="http://www.w3.org/2000/svg" xmlns:xlink="http://www.w3.org/1999/xlink" style="isolation:isolate" viewBox="0 0 300 300" width="300" height="300"><defs><clipPath id="_clipPath_BXC4quCpxlr6IFaISETLCTwsmco5JJkc"><rect width="300" height="300"/></clipPath></defs><g clip-path="url(#_clipPath_BXC4quCpxlr6IFaISETLCTwsmco5JJkc)"><clipPath id="_clipPath_bMHs6I5rhgTSLoZGBhtRXW9MroRmpaGP"><rect x="0" y="0" width="300" height="300" transform="matrix(1,0,0,1,0,0)" fill="rgb(255,255,255)"/></clipPath><g clip-path="url(#_clipPath_bMHs6I5rhgTSLoZGBhtRXW9MroRmpaGP)"><g id="Group"><g id="Group"><path d=" M 25 150 C 25 81.011 81.011 25 150 25 C 218.989 25 275 81.011 275 150 C 275 218.989 218.989 275 150 275 C 81.011 275 25 218.989 25 150 Z " fill="none" vector-effect="non-scaling-stroke" stroke-width="5" stroke="rgb(255,225,0)" stroke-opacity="100" stroke-linejoin="miter" stroke-linecap="square" stroke-miterlimit="3"/><g id="Group"><path d=" M 153.428 123.795 C 147.555 123.795 142.793 119.033 142.793 113.159 C 142.793 107.285 147.555 102.523 153.428 102.523 C 159.302 102.523 164.064 107.285 164.064 113.159 C 164.064 119.033 159.302 123.795 153.428 123.795 Z  M 153.428 119.399 C 156.874 119.399 159.668 116.605 159.668 113.159 C 159.668 109.713 156.874 106.919 153.428 106.919 C 149.982 106.919 147.189 109.713 147.189 113.159 C 147.189 116.605 149.982 119.399 153.428 119.399 Z  M 131.164 123.795 C 125.29 123.795 120.528 119.033 120.528 113.159 C 120.528 107.285 125.29 102.523 131.164 102.523 C 137.038 102.523 141.8 107.285 141.8 113.159 C 141.8 119.033 137.038 123.795 131.164 123.795 Z  M 131.164 119.399 C 134.61 119.399 137.404 116.605 137.404 113.159 C 137.404 109.713 134.61 106.919 131.164 106.919 C 127.718 106.919 124.924 109.713 124.924 113.159 C 124.924 116.605 127.718 119.399 131.164 119.399 Z  M 119.536 113.017 C 119.536 118.964 114.772 123.795 108.898 123.795 C 103.025 123.795 98.264 118.974 98.264 113.027 C 98.264 107.08 102.589 102.523 108.898 102.523 C 111.23 102.523 113.386 103.019 115.139 104.307 L 115.139 98.14 C 115.139 96.958 116.17 96 117.338 96 C 118.504 96 119.536 96.959 119.536 98.14 L 119.536 113.017 Z  M 108.9 119.399 C 112.346 119.399 115.139 116.605 115.139 113.159 C 115.139 109.713 112.346 106.919 108.9 106.919 C 105.454 106.919 102.66 109.713 102.66 113.159 C 102.66 116.605 105.454 119.399 108.9 119.399 Z " fill="rgb(208,210,211)"/><path d=" M 86.635 123.795 C 80.761 123.795 76 119.033 76 113.159 C 76 107.285 80.761 102.523 86.635 102.523 C 92.509 102.523 97.271 107.285 97.271 113.159 C 97.271 119.033 92.509 123.795 86.635 123.795 Z  M 86.635 119.399 C 90.081 119.399 92.875 116.605 92.875 113.159 C 92.875 109.713 90.081 106.919 86.635 106.919 C 83.189 106.919 80.396 109.713 80.396 113.159 C 80.396 116.605 83.189 119.399 86.635 119.399 Z " fill="rgb(67,30,117)"/></g></g></g></g><g id="Group"><path d=" M 228.536 39.82 L 261.68 52.536 L 248.964 85.68 L 215.82 72.964 L 228.536 39.82 Z " fill="none"/><path d=" M 246.653 65.814 L 254.258 62.426 C 254.615 62.267 254.895 61.972 255.035 61.607 C 255.175 61.242 255.164 60.836 255.005 60.479 L 251.311 52.185 C 251.152 51.828 250.857 51.548 250.492 51.408 C 250.127 51.268 249.721 51.279 249.363 51.438 L 241.758 54.826 L 238.371 47.221 C 238.037 46.48 237.167 46.146 236.423 46.474 L 228.13 50.168 C 227.773 50.327 227.493 50.621 227.353 50.987 C 227.213 51.352 227.224 51.758 227.383 52.115 L 230.771 59.721 L 223.166 63.108 C 222.808 63.267 222.528 63.562 222.388 63.927 C 222.248 64.292 222.259 64.698 222.419 65.056 L 226.113 73.349 C 226.445 74.094 227.315 74.428 228.06 74.096 L 235.665 70.708 L 239.053 78.313 C 239.223 78.695 239.521 78.952 239.88 79.09 C 240.239 79.227 240.637 79.222 241.014 79.065 L 249.307 75.371 C 249.665 75.212 249.944 74.918 250.085 74.553 C 250.225 74.187 250.214 73.781 250.054 73.424 L 246.653 65.814 Z  M 240.339 58.607 C 241.099 58.898 241.482 59.758 241.191 60.518 C 240.899 61.277 240.039 61.66 239.28 61.369 C 238.52 61.078 238.137 60.218 238.429 59.458 C 238.72 58.699 239.58 58.316 240.339 58.607 Z  M 232.796 58.818 L 229.701 51.896 L 236.638 48.806 L 239.719 55.723 L 232.796 58.818 Z  M 235.458 63.071 C 234.699 62.78 234.316 61.92 234.607 61.161 C 234.898 60.401 235.758 60.018 236.518 60.309 C 237.277 60.601 237.66 61.461 237.369 62.22 C 237.078 62.98 236.218 63.363 235.458 63.071 Z  M 237.161 66.893 C 236.401 66.602 236.018 65.742 236.309 64.982 C 236.601 64.223 237.461 63.84 238.22 64.131 C 238.98 64.422 239.363 65.282 239.071 66.042 C 238.78 66.801 237.92 67.184 237.161 66.893 Z  M 242.042 62.429 C 242.801 62.72 243.184 63.58 242.893 64.339 C 242.602 65.099 241.742 65.482 240.982 65.191 C 240.223 64.899 239.84 64.039 240.131 63.28 C 240.422 62.52 241.282 62.137 242.042 62.429 Z  M 240.767 76.737 L 237.672 69.814 L 244.608 66.724 L 247.689 73.642 L 240.767 76.737 Z " fill="rgb(242,101,36)"/></g><g id="Group"><path d=" M 39.71 228.787 L 72.713 215.71 L 85.79 248.713 L 52.787 261.79 L 39.71 228.787 Z " fill="none"/><path d=" M 70.641 235.655 L 73.945 228.014 C 74.101 227.655 74.107 227.249 73.963 226.885 C 73.819 226.521 73.536 226.23 73.177 226.075 L 64.844 222.471 C 64.485 222.316 64.079 222.309 63.715 222.453 C 63.351 222.597 63.06 222.88 62.905 223.24 L 59.6 230.881 L 51.959 227.577 C 51.211 227.257 50.345 227.6 50.02 228.345 L 46.416 236.678 C 46.261 237.037 46.254 237.443 46.398 237.807 C 46.542 238.17 46.825 238.462 47.185 238.617 L 54.826 241.921 L 51.522 249.563 C 51.366 249.922 51.36 250.328 51.504 250.692 C 51.648 251.056 51.931 251.347 52.29 251.502 L 60.623 255.106 C 61.372 255.429 62.238 255.086 62.562 254.337 L 65.866 246.696 L 73.508 250 C 73.892 250.166 74.285 250.154 74.642 250.012 C 75 249.87 75.289 249.597 75.461 249.226 L 79.064 240.893 C 79.22 240.534 79.226 240.128 79.082 239.765 C 78.938 239.401 78.655 239.109 78.296 238.954 L 70.641 235.655 Z  M 61.115 234.625 C 61.872 234.325 62.736 234.698 63.035 235.455 C 63.335 236.211 62.961 237.075 62.205 237.375 C 61.449 237.675 60.585 237.301 60.285 236.545 C 59.985 235.788 60.359 234.924 61.115 234.625 Z  M 55.706 239.886 L 48.742 236.886 L 51.756 229.916 L 58.707 232.922 L 55.706 239.886 Z  M 60.545 241.215 C 59.788 241.515 58.924 241.141 58.625 240.385 C 58.325 239.628 58.698 238.764 59.455 238.465 C 60.211 238.165 61.075 238.539 61.375 239.295 C 61.675 240.051 61.301 240.915 60.545 241.215 Z  M 64.385 242.875 C 63.628 243.175 62.764 242.802 62.465 242.045 C 62.165 241.289 62.539 240.425 63.295 240.125 C 64.051 239.825 64.915 240.199 65.215 240.955 C 65.515 241.712 65.141 242.576 64.385 242.875 Z  M 64.955 236.285 C 65.712 235.985 66.576 236.359 66.875 237.115 C 67.175 237.872 66.802 238.736 66.045 239.035 C 65.289 239.335 64.425 238.961 64.125 238.205 C 63.825 237.449 64.199 236.585 64.955 236.285 Z  M 73.702 247.68 L 66.738 244.68 L 69.752 237.71 L 76.703 240.715 L 73.702 247.68 Z " fill="rgb(242,101,36)"/></g><path d=" M 58.792 163.032 L 58.792 163.032 Q 58.792 164.088 58.096 164.808 L 58.096 164.808 L 58.096 164.808 Q 57.4 165.528 56.296 165.528 L 56.296 165.528 L 56.296 165.528 Q 55.24 165.528 54.52 164.808 L 54.52 164.808 L 54.52 164.808 Q 53.8 164.088 53.8 163.032 L 53.8 163.032 L 53.8 130.536 L 53.8 130.536 Q 53.8 129.432 54.52 128.736 L 54.52 128.736 L 54.52 128.736 Q 55.24 128.04 56.296 128.04 L 56.296 128.04 L 65.896 128.04 L 65.896 128.04 Q 69.448 128.04 72.256 129.624 L 72.256 129.624 L 72.256 129.624 Q 75.064 131.208 76.624 134.04 L 76.624 134.04 L 76.624 134.04 Q 78.184 136.872 78.184 140.472 L 78.184 140.472 L 78.184 140.472 Q 78.184 143.976 76.624 146.712 L 76.624 146.712 L 76.624 146.712 Q 75.064 149.448 72.256 150.984 L 72.256 150.984 L 72.256 150.984 Q 69.448 152.52 65.896 152.52 L 65.896 152.52 L 58.792 152.52 L 58.792 163.032 L 58.792 163.032 Z  M 65.896 147.912 L 65.896 147.912 Q 69.16 147.912 71.272 145.824 L 71.272 145.824 L 71.272 145.824 Q 73.384 143.736 73.384 140.472 L 73.384 140.472 L 73.384 140.472 Q 73.384 137.064 71.272 134.856 L 71.272 134.856 L 71.272 134.856 Q 69.16 132.648 65.896 132.648 L 65.896 132.648 L 58.792 132.648 L 58.792 147.912 L 65.896 147.912 L 65.896 147.912 Z  M 95.128 139.08 L 95.128 139.08 Q 98.824 139.08 101.824 140.832 L 101.824 140.832 L 101.824 140.832 Q 104.824 142.584 106.576 145.632 L 106.576 145.632 L 106.576 145.632 Q 108.328 148.68 108.328 152.424 L 108.328 152.424 L 108.328 163.128 L 108.328 163.128 Q 108.328 164.184 107.632 164.88 L 107.632 164.88 L 107.632 164.88 Q 106.936 165.576 105.88 165.576 L 105.88 165.576 L 105.88 165.576 Q 104.824 165.576 104.128 164.88 L 104.128 164.88 L 104.128 164.88 Q 103.432 164.184 103.432 163.128 L 103.432 163.128 L 103.432 161.352 L 103.432 161.352 Q 101.752 163.416 99.352 164.568 L 99.352 164.568 L 99.352 164.568 Q 96.952 165.72 94.168 165.72 L 94.168 165.72 L 94.168 165.72 Q 90.712 165.72 87.904 163.992 L 87.904 163.992 L 87.904 163.992 Q 85.096 162.264 83.488 159.216 L 83.488 159.216 L 83.488 159.216 Q 81.88 156.168 81.88 152.424 L 81.88 152.424 L 81.88 152.424 Q 81.88 148.68 83.608 145.632 L 83.608 145.632 L 83.608 145.632 Q 85.336 142.584 88.384 140.832 L 88.384 140.832 L 88.384 140.832 Q 91.432 139.08 95.128 139.08 L 95.128 139.08 L 95.128 139.08 Z  M 95.128 161.4 L 95.128 161.4 Q 97.528 161.4 99.472 160.224 L 99.472 160.224 L 99.472 160.224 Q 101.416 159.048 102.52 157.008 L 102.52 157.008 L 102.52 157.008 Q 103.624 154.968 103.624 152.424 L 103.624 152.424 L 103.624 152.424 Q 103.624 149.88 102.52 147.816 L 102.52 147.816 L 102.52 147.816 Q 101.416 145.752 99.472 144.576 L 99.472 144.576 L 99.472 144.576 Q 97.528 143.4 95.128 143.4 L 95.128 143.4 L 95.128 143.4 Q 92.728 143.4 90.784 144.576 L 90.784 144.576 L 90.784 144.576 Q 88.84 145.752 87.712 147.816 L 87.712 147.816 L 87.712 147.816 Q 86.584 149.88 86.584 152.424 L 86.584 152.424 L 86.584 152.424 Q 86.584 154.968 87.712 157.008 L 87.712 157.008 L 87.712 157.008 Q 88.84 159.048 90.784 160.224 L 90.784 160.224 L 90.784 160.224 Q 92.728 161.4 95.128 161.4 L 95.128 161.4 L 95.128 161.4 Z  M 126.808 160.728 L 126.808 160.728 Q 127.672 160.728 128.272 161.4 L 128.272 161.4 L 128.272 161.4 Q 128.872 162.072 128.872 163.128 L 128.872 163.128 L 128.872 163.128 Q 128.872 164.184 128.08 164.856 L 128.08 164.856 L 128.08 164.856 Q 127.288 165.528 126.04 165.528 L 126.04 165.528 L 125.176 165.528 L 125.176 165.528 Q 122.824 165.528 120.88 164.304 L 120.88 164.304 L 120.88 164.304 Q 118.936 163.08 117.832 160.968 L 117.832 160.968 L 117.832 160.968 Q 116.728 158.856 116.728 156.216 L 116.728 156.216 L 116.728 144.36 L 114.52 144.36 L 114.52 144.36 Q 113.512 144.36 112.888 143.784 L 112.888 143.784 L 112.888 143.784 Q 112.264 143.208 112.264 142.344 L 112.264 142.344 L 112.264 142.344 Q 112.264 141.384 112.888 140.808 L 112.888 140.808 L 112.888 140.808 Q 113.512 140.232 114.52 140.232 L 114.52 140.232 L 116.728 140.232 L 116.728 133.32 L 116.728 133.32 Q 116.728 132.264 117.4 131.592 L 117.4 131.592 L 117.4 131.592 Q 118.072 130.92 119.128 130.92 L 119.128 130.92 L 119.128 130.92 Q 120.184 130.92 120.856 131.592 L 120.856 131.592 L 120.856 131.592 Q 121.528 132.264 121.528 133.32 L 121.528 133.32 L 121.528 140.232 L 125.608 140.232 L 125.608 140.232 Q 126.616 140.232 127.24 140.808 L 127.24 140.808 L 127.24 140.808 Q 127.864 141.384 127.864 142.344 L 127.864 142.344 L 127.864 142.344 Q 127.864 143.208 127.24 143.784 L 127.24 143.784 L 127.24 143.784 Q 126.616 144.36 125.608 144.36 L 125.608 144.36 L 121.528 144.36 L 121.528 156.216 L 121.528 156.216 Q 121.528 158.136 122.584 159.432 L 122.584 159.432 L 122.584 159.432 Q 123.64 160.728 125.176 160.728 L 125.176 160.728 L 126.808 160.728 L 126.808 160.728 Z  M 146.536 139.08 L 146.536 139.08 Q 152.2 139.08 155.944 143.4 L 155.944 143.4 L 155.944 143.4 Q 156.424 143.928 156.424 144.648 L 156.424 144.648 L 156.424 144.648 Q 156.424 145.704 155.368 146.424 L 155.368 146.424 L 155.368 146.424 Q 154.888 146.76 154.264 146.76 L 154.264 146.76 L 154.264 146.76 Q 153.16 146.76 152.392 145.896 L 152.392 145.896 L 152.392 145.896 Q 151.192 144.6 149.776 144 L 149.776 144 L 149.776 144 Q 148.36 143.4 146.536 143.4 L 146.536 143.4 L 146.536 143.4 Q 142.84 143.4 140.536 145.872 L 140.536 145.872 L 140.536 145.872 Q 138.232 148.344 138.232 152.424 L 138.232 152.424 L 138.232 152.424 Q 138.232 155.016 139.312 157.056 L 139.312 157.056 L 139.312 157.056 Q 140.392 159.096 142.336 160.248 L 142.336 160.248 L 142.336 160.248 Q 144.28 161.4 146.776 161.4 L 146.776 161.4 L 146.776 161.4 Q 150.04 161.4 152.056 159.72 L 152.056 159.72 L 152.056 159.72 Q 152.968 159.048 153.832 159.048 L 153.832 159.048 L 153.832 159.048 Q 154.504 159.048 155.08 159.48 L 155.08 159.48 L 155.08 159.48 Q 155.992 160.248 155.992 161.208 L 155.992 161.208 L 155.992 161.208 Q 155.992 161.928 155.416 162.504 L 155.416 162.504 L 155.416 162.504 Q 151.96 165.72 146.776 165.72 L 146.776 165.72 L 146.776 165.72 Q 142.984 165.72 139.96 163.992 L 139.96 163.992 L 139.96 163.992 Q 136.936 162.264 135.232 159.216 L 135.232 159.216 L 135.232 159.216 Q 133.528 156.168 133.528 152.424 L 133.528 152.424 L 133.528 152.424 Q 133.528 148.584 135.184 145.536 L 135.184 145.536 L 135.184 145.536 Q 136.84 142.488 139.816 140.784 L 139.816 140.784 L 139.816 140.784 Q 142.792 139.08 146.536 139.08 L 146.536 139.08 L 146.536 139.08 Z  M 176.776 139.032 L 176.776 139.032 Q 180.088 139.032 182.728 140.472 L 182.728 140.472 L 182.728 140.472 Q 185.368 141.912 186.856 144.672 L 186.856 144.672 L 186.856 144.672 Q 188.344 147.432 188.344 151.32 L 188.344 151.32 L 188.344 163.128 L 188.344 163.128 Q 188.344 164.184 187.648 164.88 L 187.648 164.88 L 187.648 164.88 Q 186.952 165.576 185.896 165.576 L 185.896 165.576 L 185.896 165.576 Q 184.84 165.576 184.144 164.88 L 184.144 164.88 L 184.144 164.88 Q 183.448 164.184 183.448 163.128 L 183.448 163.128 L 183.448 151.32 L 183.448 151.32 Q 183.448 147.432 181.36 145.44 L 181.36 145.44 L 181.36 145.44 Q 179.272 143.448 175.816 143.448 L 175.816 143.448 L 175.816 143.448 Q 173.8 143.448 172.144 144.264 L 172.144 144.264 L 172.144 144.264 Q 170.488 145.08 169.552 146.472 L 169.552 146.472 L 169.552 146.472 Q 168.616 147.864 168.616 149.592 L 168.616 149.592 L 168.616 163.128 L 168.616 163.128 Q 168.616 164.184 167.944 164.88 L 167.944 164.88 L 167.944 164.88 Q 167.272 165.576 166.168 165.576 L 166.168 165.576 L 166.168 165.576 Q 165.112 165.576 164.416 164.88 L 164.416 164.88 L 164.416 164.88 Q 163.72 164.184 163.72 163.128 L 163.72 163.128 L 163.72 130.488 L 163.72 130.488 Q 163.72 129.384 164.416 128.712 L 164.416 128.712 L 164.416 128.712 Q 165.112 128.04 166.168 128.04 L 166.168 128.04 L 166.168 128.04 Q 167.272 128.04 167.944 128.712 L 167.944 128.712 L 167.944 128.712 Q 168.616 129.384 168.616 130.488 L 168.616 130.488 L 168.616 142.248 L 168.616 142.248 Q 170.152 140.712 172.264 139.872 L 172.264 139.872 L 172.264 139.872 Q 174.376 139.032 176.776 139.032 L 176.776 139.032 L 176.776 139.032 Z  M 220.072 151.992 L 220.072 151.992 Q 220.072 152.904 219.448 153.504 L 219.448 153.504 L 219.448 153.504 Q 218.824 154.104 217.864 154.104 L 217.864 154.104 L 199.624 154.104 L 199.624 154.104 Q 200.152 157.464 202.672 159.528 L 202.672 159.528 L 202.672 159.528 Q 205.192 161.592 208.84 161.592 L 208.84 161.592 L 208.84 161.592 Q 210.28 161.592 211.84 161.064 L 211.84 161.064 L 211.84 161.064 Q 213.4 160.536 214.408 159.768 L 214.408 159.768 L 214.408 159.768 Q 215.08 159.24 215.992 159.24 L 215.992 159.24 L 215.992 159.24 Q 216.904 159.24 217.432 159.72 L 217.432 159.72 L 217.432 159.72 Q 218.296 160.44 218.296 161.352 L 218.296 161.352 L 218.296 161.352 Q 218.296 162.216 217.528 162.792 L 217.528 162.792 L 217.528 162.792 Q 215.896 164.088 213.472 164.904 L 213.472 164.904 L 213.472 164.904 Q 211.048 165.72 208.84 165.72 L 208.84 165.72 L 208.84 165.72 Q 204.904 165.72 201.784 164.016 L 201.784 164.016 L 201.784 164.016 Q 198.664 162.312 196.912 159.288 L 196.912 159.288 L 196.912 159.288 Q 195.16 156.264 195.16 152.424 L 195.16 152.424 L 195.16 152.424 Q 195.16 148.584 196.816 145.536 L 196.816 145.536 L 196.816 145.536 Q 198.472 142.488 201.424 140.784 L 201.424 140.784 L 201.424 140.784 Q 204.376 139.08 208.12 139.08 L 208.12 139.08 L 208.12 139.08 Q 211.816 139.08 214.504 140.712 L 214.504 140.712 L 214.504 140.712 Q 217.192 142.344 218.632 145.272 L 218.632 145.272 L 218.632 145.272 Q 220.072 148.2 220.072 151.992 L 220.072 151.992 L 220.072 151.992 Z  M 208.12 143.208 L 208.12 143.208 Q 204.616 143.208 202.432 145.128 L 202.432 145.128 L 202.432 145.128 Q 200.248 147.048 199.672 150.264 L 199.672 150.264 L 215.656 150.264 L 215.656 150.264 Q 215.224 147.048 213.256 145.128 L 213.256 145.128 L 213.256 145.128 Q 211.288 143.208 208.12 143.208 L 208.12 143.208 L 208.12 143.208 Z  M 235.528 139.08 L 235.528 139.08 Q 238.648 139.08 241.12 140.088 L 241.12 140.088 L 241.12 140.088 Q 243.592 141.096 245.032 142.872 L 245.032 142.872 L 245.032 142.872 Q 245.656 143.64 245.656 144.408 L 245.656 144.408 L 245.656 144.408 Q 245.656 145.224 244.84 145.896 L 244.84 145.896 L 244.84 145.896 Q 244.312 146.28 243.496 146.28 L 243.496 146.28 L 243.496 146.28 Q 242.248 146.28 241.24 145.368 L 241.24 145.368 L 241.24 145.368 Q 240.04 144.264 238.696 143.808 L 238.696 143.808 L 238.696 143.808 Q 237.352 143.352 235.432 143.352 L 235.432 143.352 L 235.432 143.352 Q 233.224 143.352 231.808 144.096 L 231.808 144.096 L 231.808 144.096 Q 230.392 144.84 230.392 146.184 L 230.392 146.184 L 230.392 146.184 Q 230.392 147.144 230.872 147.792 L 230.872 147.792 L 230.872 147.792 Q 231.352 148.44 232.696 148.992 L 232.696 148.992 L 232.696 148.992 Q 234.04 149.544 236.584 150.072 L 236.584 150.072 L 236.584 150.072 Q 241.816 151.128 244 153 L 244 153 L 244 153 Q 246.184 154.872 246.184 157.848 L 246.184 157.848 L 246.184 157.848 Q 246.184 160.056 244.984 161.856 L 244.984 161.856 L 244.984 161.856 Q 243.784 163.656 241.456 164.688 L 241.456 164.688 L 241.456 164.688 Q 239.128 165.72 235.864 165.72 L 235.864 165.72 L 235.864 165.72 Q 232.6 165.72 229.72 164.712 L 229.72 164.712 L 229.72 164.712 Q 226.84 163.704 225.208 162.072 L 225.208 162.072 L 225.208 162.072 Q 224.584 161.448 224.584 160.584 L 224.584 160.584 L 224.584 160.584 Q 224.584 159.432 225.544 158.712 L 225.544 158.712 L 225.544 158.712 Q 226.456 158.04 227.224 158.04 L 227.224 158.04 L 227.224 158.04 Q 228.184 158.04 229.048 158.904 L 229.048 158.904 L 229.048 158.904 Q 229.96 159.912 231.784 160.656 L 231.784 160.656 L 231.784 160.656 Q 233.608 161.4 235.672 161.4 L 235.672 161.4 L 235.672 161.4 Q 238.408 161.4 239.92 160.488 L 239.92 160.488 L 239.92 160.488 Q 241.432 159.576 241.432 158.04 L 241.432 158.04 L 241.432 158.04 Q 241.432 156.552 239.944 155.568 L 239.944 155.568 L 239.944 155.568 Q 238.456 154.584 234.904 153.912 L 234.904 153.912 L 234.904 153.912 Q 225.688 152.136 225.688 146.328 L 225.688 146.328 L 225.688 146.328 Q 225.688 143.976 227.08 142.344 L 227.08 142.344 L 227.08 142.344 Q 228.472 140.712 230.728 139.896 L 230.728 139.896 L 230.728 139.896 Q 232.984 139.08 235.528 139.08 L 235.528 139.08 L 235.528 139.08 Z " fill-rule="evenodd" fill="rgb(67,30,117)"/><clipPath id="_clipPath_spiSt55kH19eOUWGrwoJvbwWhLZgVb77"><rect x="194.7" y="172" width="56.3" height="25.446" transform="matrix(1,0,0,1,0,0)" fill="rgb(255,255,255)"/></clipPath><g clip-path="url(#_clipPath_spiSt55kH19eOUWGrwoJvbwWhLZgVb77)"><g id="Group"><g id="Capa_6"><path d=" M 245.817 193.061 L 245.817 192.382 C 245.817 191.604 245.187 190.974 244.409 190.974 L 238.729 190.974 C 237.95 190.974 237.321 190.345 237.321 189.567 L 237.321 188.772 C 237.321 187.993 236.692 187.364 235.914 187.364 L 235.234 187.364 C 234.456 187.364 233.827 187.993 233.827 188.772 L 233.827 193.061 C 233.827 193.839 234.456 194.468 235.234 194.468 L 244.409 194.485 C 245.171 194.485 245.817 193.839 245.817 193.061 Z " fill="rgb(67,30,117)"/><path d=" M 245.817 176.5 L 245.817 177.162 C 245.817 177.957 245.171 178.587 244.393 178.587 L 238.745 178.587 C 237.95 178.587 237.321 179.232 237.321 180.011 L 237.321 180.789 C 237.321 181.584 236.675 182.214 235.897 182.214 L 235.234 182.214 C 234.44 182.214 233.81 181.568 233.81 180.789 L 233.81 176.5 C 233.81 175.705 234.456 175.076 235.234 175.076 L 244.393 175.059 C 245.171 175.059 245.817 175.705 245.817 176.5 Z " fill="rgb(67,30,117)"/><path d=" M 241.412 184.399 L 241.412 185.128 C 241.412 185.89 240.782 186.519 240.021 186.519 L 235.168 186.519 C 234.406 186.519 233.777 185.89 233.777 185.128 L 233.777 184.399 C 233.777 183.638 234.406 183.008 235.168 183.008 L 240.021 183.008 C 240.799 183.008 241.412 183.638 241.412 184.399 Z " fill="rgb(67,30,117)"/><path d=" M 195.456 193.607 L 196.019 194.071 C 196.615 194.568 197.509 194.485 198.006 193.905 L 211.487 177.842 C 211.983 177.245 211.9 176.351 211.321 175.854 L 210.758 175.39 C 210.162 174.894 209.267 174.977 208.771 175.556 L 195.29 191.62 C 194.777 192.216 194.86 193.094 195.456 193.607 Z " fill="rgb(67,30,117)"/><path d=" M 222.251 178.669 C 224.718 178.669 226.789 180.574 227.418 183.174 C 227.584 183.836 228.163 184.3 228.842 184.3 L 228.842 184.3 C 229.786 184.3 230.498 183.423 230.299 182.495 C 229.389 178.355 226.126 175.275 222.251 175.275 C 218.392 175.275 215.146 178.322 214.202 182.429 C 213.987 183.356 214.699 184.234 215.643 184.234 L 215.643 184.234 C 216.322 184.234 216.918 183.77 217.084 183.124 C 217.73 180.557 219.8 178.669 222.251 178.669 Z " fill="rgb(67,30,117)"/><path d=" M 222.251 191.057 C 219.783 191.057 217.713 189.152 217.084 186.552 C 216.918 185.89 216.339 185.426 215.66 185.426 L 215.66 185.426 C 214.716 185.426 214.004 186.304 214.202 187.232 C 215.113 191.372 218.376 194.435 222.251 194.435 C 226.11 194.435 229.356 191.405 230.283 187.281 C 230.498 186.354 229.786 185.476 228.842 185.476 L 228.842 185.476 C 228.163 185.476 227.567 185.939 227.401 186.586 C 226.772 189.169 224.702 191.057 222.251 191.057 Z " fill="rgb(255,225,0)"/><path d=" M 247.953 193.922 C 248.235 194.237 248.649 194.435 249.113 194.435 L 249.311 194.435 C 249.775 194.435 250.189 194.237 250.487 193.905 L 249.228 192.978 L 247.953 193.922 Z " fill="rgb(250,214,26)"/><path d=" M 250.47 191.604 C 250.189 191.289 249.775 191.09 249.311 191.09 L 249.113 191.09 C 248.649 191.09 248.251 191.289 247.953 191.604 L 249.212 192.531 L 250.47 191.604 Z " fill="rgb(250,214,26)"/><path d=" M 247.738 191.902 C 247.605 192.133 247.539 192.382 247.539 192.663 L 247.539 192.862 C 247.539 193.144 247.605 193.392 247.738 193.624 L 248.897 192.763 L 247.738 191.902 Z " fill="rgb(250,214,26)"/><path d=" M 250.686 193.591 C 250.802 193.375 250.868 193.11 250.868 192.845 L 250.868 192.647 C 250.868 192.365 250.802 192.117 250.669 191.885 L 249.526 192.73 L 250.686 193.591 Z " fill="rgb(250,214,26)"/><path d=" M 206.85 194.435 L 203.455 190.51 L 199.911 194.435" fill="rgb(208,210,211)"/><path d=" M 199.911 175.059 L 203.306 178.984 L 206.85 175.059" fill="rgb(208,210,211)"/><path d=" M 218.326 184.946 C 218.326 182.533 220.085 180.574 222.251 180.574 C 224.417 180.574 226.176 182.533 226.176 184.946 C 226.176 187.359 224.417 189.318 222.251 189.318 C 220.085 189.318 218.326 187.359 218.326 184.946 Z " fill="rgb(208,210,211)"/><path d=" M 244.194 179.431 L 238.679 179.431 L 238.679 181.021" fill="rgb(208,210,211)"/><path d=" M 244.194 190.113 L 238.679 190.113 L 238.679 188.523" fill="rgb(208,210,211)"/></g><g id="Capa_7"><path d=" M 195.042 175.904 C 195.058 175.887 195.075 175.871 195.075 175.871 L 195.804 175.225 C 196.35 174.827 197.162 174.877 197.625 175.39 L 202.014 180.508 C 202.428 181.038 202.411 181.651 201.981 182.197 C 201.683 182.561 201.501 182.843 201.302 183.025 C 200.772 183.538 200.093 183.456 199.579 182.942 L 194.992 177.659 C 194.595 177.162 194.595 176.417 195.042 175.904 Z " fill="rgb(67,30,117)"/><path d=" M 211.685 193.508 C 211.669 193.524 211.652 193.541 211.652 193.541 L 210.924 194.187 C 210.377 194.584 209.565 194.535 209.102 194.021 L 204.713 188.904 C 204.299 188.374 204.316 187.761 204.747 187.215 C 205.045 186.85 205.227 186.569 205.425 186.387 C 205.955 185.873 206.634 185.956 207.148 186.47 L 211.735 191.736 C 212.116 192.233 212.132 192.994 211.685 193.508 Z " fill="rgb(67,30,117)"/></g></g></g></g></svg>