<?xml version="1.0" standalone="no"?><!-- Generator: Gravit.io --><svg xmlns="http://www.w3.org/2000/svg" xmlns:xlink="http://www.w3.org/1999/xlink" style="isolation:isolate" viewBox="0 0 300 300" width="300" height="300"><defs><clipPath id="_clipPath_RadrR1rKlgPUKTvE7BskDRkjs2Ra6gSo"><rect width="300" height="300"/></clipPath></defs><g clip-path="url(#_clipPath_RadrR1rKlgPUKTvE7BskDRkjs2Ra6gSo)"><clipPath id="_clipPath_fwPvP62G9bZSIKpOe9yJlGuxgbLxcafm"><rect x="0" y="0" width="300" height="300" transform="matrix(1,0,0,1,0,0)" fill="rgb(255,255,255)"/></clipPath><g clip-path="url(#_clipPath_fwPvP62G9bZSIKpOe9yJlGuxgbLxcafm)"><g id="Group"><rect x="0" y="0" width="300" height="300" transform="matrix(1,0,0,1,0,0)" fill="none"/><path d=" M 25 150 C 25 81.011 81.011 25 150 25 C 218.989 25 275 81.011 275 150 C 275 218.989 218.989 275 150 275 C 81.011 275 25 218.989 25 150 Z " fill="none" vector-effect="non-scaling-stroke" stroke-width="5" stroke="rgb(255,225,0)" stroke-opacity="10000" stroke-linejoin="miter" stroke-linecap="square" stroke-miterlimit="3"/><g id="Odoo"><path d=" M 161.428 135.795 C 155.555 135.795 150.793 131.033 150.793 125.159 C 150.793 119.285 155.555 114.523 161.428 114.523 C 167.302 114.523 172.064 119.285 172.064 125.159 C 172.064 131.033 167.302 135.795 161.428 135.795 Z  M 161.428 131.399 C 164.874 131.399 167.668 128.605 167.668 125.159 C 167.668 121.713 164.874 118.919 161.428 118.919 C 157.982 118.919 155.189 121.713 155.189 125.159 C 155.189 128.605 157.982 131.399 161.428 131.399 Z  M 139.164 135.795 C 133.29 135.795 128.528 131.033 128.528 125.159 C 128.528 119.285 133.29 114.523 139.164 114.523 C 145.038 114.523 149.8 119.285 149.8 125.159 C 149.8 131.033 145.038 135.795 139.164 135.795 Z  M 139.164 131.399 C 142.61 131.399 145.404 128.605 145.404 125.159 C 145.404 121.713 142.61 118.919 139.164 118.919 C 135.718 118.919 132.924 121.713 132.924 125.159 C 132.924 128.605 135.718 131.399 139.164 131.399 Z  M 127.536 125.017 C 127.536 130.964 122.772 135.795 116.898 135.795 C 111.025 135.795 106.264 130.974 106.264 125.027 C 106.264 119.08 110.589 114.523 116.898 114.523 C 119.23 114.523 121.386 115.019 123.139 116.307 L 123.139 110.14 C 123.139 108.958 124.17 108 125.338 108 C 126.504 108 127.536 108.959 127.536 110.14 L 127.536 125.017 L 127.536 125.017 Z  M 116.9 131.399 C 120.346 131.399 123.139 128.605 123.139 125.159 C 123.139 121.713 120.346 118.919 116.9 118.919 C 113.454 118.919 110.66 121.713 110.66 125.159 C 110.66 128.605 113.454 131.399 116.9 131.399 Z " fill="rgb(255,255,255)"/><path d=" M 94.635 135.795 C 88.761 135.795 84 131.033 84 125.159 C 84 119.285 88.761 114.523 94.635 114.523 C 100.509 114.523 105.271 119.285 105.271 125.159 C 105.271 131.033 100.509 135.795 94.635 135.795 Z  M 94.635 131.399 C 98.081 131.399 100.875 128.605 100.875 125.159 C 100.875 121.713 98.081 118.919 94.635 118.919 C 91.189 118.919 88.396 121.713 88.396 125.159 C 88.396 128.605 91.189 131.399 94.635 131.399 Z " fill="rgb(255,255,255)"/></g><g id="k8sr"><path d=" M 235.834 34.004 C 235.409 34.025 234.994 34.131 234.611 34.314 L 217.924 42.287 C 217.049 42.705 216.413 43.495 216.197 44.434 L 212.08 62.344 C 211.888 63.178 212.044 64.053 212.513 64.77 C 212.57 64.857 212.63 64.941 212.695 65.022 L 224.245 79.383 C 224.851 80.136 225.769 80.574 226.74 80.574 L 245.262 80.57 C 246.233 80.57 247.151 80.133 247.757 79.381 L 259.303 65.018 C 259.909 64.265 260.136 63.279 259.92 62.34 L 255.797 44.43 C 255.581 43.491 254.945 42.7 254.07 42.283 L 237.381 34.314 C 236.899 34.084 236.367 33.977 235.834 34.004 L 235.834 34.004 L 235.834 34.004 Z " fill="rgb(50,108,229)"/><path d=" M 235.999 40.099 C 235.447 40.099 235 40.596 235 41.209 C 235 41.218 235.002 41.227 235.002 41.237 C 235.001 41.32 234.997 41.42 235 41.493 C 235.013 41.846 235.09 42.117 235.137 42.442 C 235.221 43.14 235.291 43.717 235.248 44.254 C 235.205 44.457 235.056 44.642 234.923 44.771 L 234.9 45.193 C 234.3 45.243 233.697 45.334 233.094 45.471 C 230.501 46.06 228.268 47.396 226.568 49.199 C 226.458 49.124 226.265 48.986 226.207 48.943 C 226.029 48.967 225.849 49.022 225.614 48.886 C 225.167 48.585 224.76 48.169 224.267 47.669 C 224.042 47.43 223.878 47.202 223.61 46.971 C 223.549 46.919 223.456 46.848 223.388 46.794 C 223.178 46.627 222.931 46.54 222.692 46.532 C 222.385 46.521 222.09 46.641 221.896 46.884 C 221.552 47.315 221.663 47.974 222.142 48.356 C 222.147 48.36 222.152 48.363 222.157 48.367 C 222.223 48.42 222.303 48.489 222.364 48.533 C 222.648 48.744 222.908 48.851 223.192 49.018 C 223.789 49.387 224.284 49.693 224.677 50.061 C 224.831 50.225 224.857 50.513 224.878 50.638 L 225.198 50.924 C 223.484 53.503 222.691 56.688 223.16 59.934 L 222.741 60.056 C 222.631 60.198 222.475 60.422 222.312 60.489 C 221.799 60.651 221.22 60.71 220.522 60.784 C 220.194 60.811 219.911 60.795 219.564 60.86 C 219.487 60.875 219.381 60.903 219.297 60.922 C 219.294 60.923 219.291 60.924 219.288 60.924 C 219.284 60.926 219.278 60.928 219.273 60.929 C 218.685 61.071 218.306 61.612 218.428 62.145 C 218.55 62.678 219.125 63.003 219.717 62.875 C 219.722 62.874 219.728 62.874 219.732 62.873 C 219.739 62.871 219.745 62.868 219.751 62.867 C 219.834 62.848 219.937 62.828 220.01 62.809 C 220.351 62.717 220.599 62.583 220.906 62.465 C 221.567 62.228 222.114 62.03 222.648 61.953 C 222.87 61.936 223.105 62.091 223.222 62.156 L 223.657 62.081 C 224.659 65.187 226.758 67.698 229.417 69.273 L 229.236 69.709 C 229.301 69.878 229.373 70.107 229.325 70.273 C 229.131 70.776 228.799 71.307 228.42 71.898 C 228.237 72.172 228.05 72.384 227.885 72.697 C 227.845 72.771 227.795 72.886 227.757 72.965 C 227.5 73.515 227.688 74.147 228.181 74.385 C 228.678 74.624 229.294 74.372 229.56 73.821 C 229.561 73.821 229.562 73.82 229.562 73.819 C 229.563 73.819 229.562 73.818 229.562 73.817 C 229.6 73.739 229.654 73.636 229.686 73.563 C 229.828 73.239 229.875 72.961 229.974 72.648 C 230.238 71.984 230.384 71.287 230.747 70.853 C 230.847 70.734 231.009 70.689 231.178 70.644 L 231.404 70.234 C 233.722 71.123 236.316 71.362 238.908 70.774 C 239.499 70.639 240.07 70.466 240.622 70.257 C 240.685 70.37 240.803 70.587 240.835 70.641 C 241.006 70.697 241.193 70.726 241.345 70.951 C 241.617 71.416 241.803 71.966 242.03 72.63 C 242.13 72.944 242.179 73.222 242.32 73.546 C 242.353 73.62 242.406 73.724 242.444 73.802 C 242.71 74.354 243.328 74.607 243.825 74.368 C 244.318 74.13 244.507 73.498 244.25 72.948 C 244.212 72.869 244.159 72.754 244.119 72.68 C 243.954 72.367 243.767 72.157 243.584 71.883 C 243.206 71.292 242.892 70.8 242.698 70.298 C 242.617 70.038 242.712 69.877 242.775 69.709 C 242.737 69.665 242.656 69.421 242.608 69.305 C 245.371 67.674 247.409 65.07 248.367 62.062 C 248.496 62.082 248.72 62.122 248.793 62.137 C 248.944 62.038 249.082 61.908 249.353 61.93 C 249.886 62.007 250.433 62.205 251.094 62.442 C 251.401 62.56 251.649 62.696 251.99 62.788 C 252.063 62.807 252.166 62.825 252.249 62.843 C 252.255 62.845 252.261 62.848 252.268 62.849 C 252.272 62.85 252.278 62.851 252.283 62.852 C 252.875 62.979 253.45 62.655 253.572 62.122 C 253.693 61.589 253.315 61.047 252.727 60.905 C 252.641 60.886 252.52 60.853 252.436 60.837 C 252.089 60.771 251.806 60.787 251.478 60.76 C 250.78 60.687 250.201 60.627 249.688 60.466 C 249.478 60.384 249.329 60.135 249.256 60.032 L 248.853 59.915 C 249.062 58.402 249.006 56.827 248.644 55.252 C 248.279 53.662 247.633 52.207 246.772 50.926 C 246.876 50.832 247.071 50.659 247.127 50.608 C 247.143 50.429 247.129 50.241 247.314 50.042 C 247.707 49.673 248.202 49.368 248.8 48.999 C 249.083 48.832 249.345 48.724 249.63 48.514 C 249.694 48.467 249.782 48.391 249.85 48.337 C 250.329 47.955 250.439 47.296 250.095 46.864 C 249.751 46.433 249.085 46.393 248.606 46.775 C 248.537 46.829 248.445 46.899 248.384 46.952 C 248.115 47.183 247.95 47.411 247.724 47.65 C 247.232 48.15 246.824 48.568 246.377 48.868 C 246.184 48.981 245.9 48.942 245.771 48.935 L 245.391 49.206 C 243.225 46.934 240.276 45.482 237.1 45.2 C 237.091 45.067 237.08 44.826 237.077 44.754 C 236.947 44.629 236.79 44.523 236.75 44.254 C 236.707 43.717 236.779 43.14 236.863 42.442 C 236.91 42.117 236.987 41.846 237 41.493 C 237.003 41.412 236.998 41.296 236.998 41.209 C 236.998 40.596 236.551 40.099 235.999 40.099 L 235.999 40.099 L 235.999 40.099 Z  M 234.748 47.846 L 234.452 53.086 L 234.43 53.096 C 234.41 53.565 234.025 53.939 233.551 53.939 C 233.357 53.939 233.178 53.877 233.032 53.771 L 233.024 53.775 L 228.728 50.729 C 230.048 49.431 231.737 48.472 233.683 48.03 C 234.039 47.949 234.394 47.889 234.748 47.846 Z  M 237.252 47.846 C 239.524 48.126 241.626 49.155 243.236 50.732 L 238.968 53.758 L 238.953 53.751 C 238.574 54.028 238.04 53.96 237.745 53.589 C 237.624 53.438 237.56 53.259 237.553 53.079 L 237.548 53.077 L 237.252 47.846 L 237.252 47.846 Z  M 227.17 52.687 L 231.092 56.195 L 231.088 56.216 C 231.442 56.524 231.494 57.058 231.199 57.429 C 231.078 57.58 230.916 57.682 230.742 57.73 L 230.738 57.747 L 225.71 59.198 C 225.454 56.858 226.006 54.583 227.17 52.687 Z  M 244.8 52.689 C 245.383 53.633 245.824 54.688 246.087 55.832 C 246.347 56.962 246.412 58.091 246.305 59.181 L 241.251 57.725 L 241.247 57.704 C 240.794 57.58 240.516 57.12 240.622 56.658 C 240.665 56.469 240.765 56.309 240.901 56.191 L 240.899 56.18 L 244.8 52.689 L 244.8 52.689 L 244.8 52.689 Z  M 235.194 56.466 L 236.801 56.466 L 237.8 57.715 L 237.442 59.273 L 235.999 59.966 L 234.552 59.27 L 234.193 57.713 L 235.194 56.466 L 235.194 56.466 Z  M 240.346 60.739 C 240.415 60.735 240.483 60.741 240.549 60.754 L 240.558 60.743 L 245.759 61.622 C 244.997 63.761 243.541 65.613 241.595 66.853 L 239.576 61.977 L 239.582 61.968 C 239.397 61.537 239.582 61.032 240.009 60.826 C 240.118 60.774 240.232 60.745 240.346 60.739 L 240.346 60.739 L 240.346 60.739 Z  M 231.611 60.76 C 232.008 60.766 232.364 61.041 232.456 61.445 C 232.499 61.634 232.478 61.822 232.407 61.987 L 232.422 62.006 L 230.424 66.834 C 228.557 65.636 227.069 63.841 226.273 61.639 L 231.43 60.764 L 231.438 60.775 C 231.496 60.764 231.554 60.759 231.611 60.76 L 231.611 60.76 L 231.611 60.76 Z  M 235.967 62.875 C 236.105 62.87 236.245 62.898 236.379 62.963 C 236.554 63.047 236.689 63.179 236.774 63.338 L 236.793 63.338 L 239.335 67.931 C 239.005 68.042 238.666 68.136 238.319 68.215 C 236.375 68.656 234.437 68.522 232.682 67.925 L 235.218 63.34 L 235.222 63.34 C 235.374 63.056 235.663 62.886 235.967 62.875 Z " fill="rgb(255,255,255)" vector-effect="non-scaling-stroke" stroke-width="0.25" stroke="rgb(255,255,255)" stroke-opacity="100" stroke-linejoin="miter" stroke-linecap="butt" stroke-miterlimit="4"/></g><g id="k8sl"><path d=" M 65.834 216.004 C 65.409 216.025 64.994 216.131 64.611 216.314 L 47.924 224.287 C 47.049 224.705 46.413 225.495 46.197 226.434 L 42.08 244.344 C 41.888 245.178 42.044 246.053 42.513 246.77 C 42.57 246.857 42.63 246.941 42.695 247.022 L 54.245 261.383 C 54.851 262.136 55.769 262.574 56.74 262.574 L 75.262 262.57 C 76.233 262.57 77.151 262.133 77.757 261.381 L 89.303 247.018 C 89.909 246.265 90.136 245.279 89.92 244.34 L 85.797 226.43 C 85.581 225.491 84.945 224.7 84.07 224.283 L 67.381 216.314 C 66.899 216.084 66.367 215.977 65.834 216.004 L 65.834 216.004 L 65.834 216.004 Z " fill="rgb(50,108,229)"/><path d=" M 65.999 222.099 C 65.447 222.099 65 222.596 65 223.209 C 65 223.218 65.002 223.227 65.002 223.237 C 65.001 223.32 64.997 223.42 65 223.493 C 65.013 223.846 65.09 224.117 65.137 224.442 C 65.221 225.14 65.291 225.717 65.248 226.254 C 65.205 226.457 65.056 226.642 64.923 226.771 L 64.9 227.193 C 64.3 227.243 63.697 227.334 63.094 227.471 C 60.501 228.06 58.268 229.396 56.568 231.199 C 56.458 231.124 56.265 230.986 56.207 230.943 C 56.029 230.967 55.849 231.022 55.614 230.886 C 55.167 230.585 54.76 230.169 54.267 229.669 C 54.042 229.43 53.878 229.202 53.61 228.971 C 53.549 228.919 53.456 228.848 53.388 228.794 C 53.178 228.627 52.931 228.54 52.692 228.532 C 52.385 228.521 52.09 228.641 51.896 228.884 C 51.552 229.315 51.663 229.974 52.142 230.356 C 52.147 230.36 52.152 230.363 52.157 230.367 C 52.223 230.42 52.303 230.489 52.364 230.533 C 52.648 230.744 52.908 230.851 53.192 231.018 C 53.789 231.387 54.284 231.693 54.677 232.061 C 54.831 232.225 54.857 232.513 54.878 232.638 L 55.198 232.924 C 53.484 235.503 52.691 238.688 53.16 241.934 L 52.741 242.056 C 52.631 242.198 52.475 242.422 52.312 242.489 C 51.799 242.651 51.22 242.71 50.522 242.784 C 50.194 242.811 49.911 242.795 49.564 242.86 C 49.487 242.875 49.381 242.903 49.297 242.922 C 49.294 242.923 49.291 242.924 49.288 242.924 C 49.284 242.926 49.278 242.928 49.273 242.929 C 48.685 243.071 48.306 243.612 48.428 244.145 C 48.55 244.678 49.125 245.003 49.717 244.875 C 49.722 244.874 49.728 244.874 49.732 244.873 C 49.739 244.871 49.745 244.868 49.751 244.867 C 49.834 244.848 49.937 244.828 50.01 244.809 C 50.351 244.717 50.599 244.583 50.906 244.465 C 51.567 244.228 52.114 244.03 52.648 243.953 C 52.87 243.936 53.105 244.091 53.222 244.156 L 53.657 244.081 C 54.659 247.187 56.758 249.698 59.417 251.273 L 59.236 251.709 C 59.301 251.878 59.373 252.107 59.325 252.273 C 59.131 252.776 58.799 253.307 58.42 253.898 C 58.237 254.172 58.05 254.384 57.885 254.697 C 57.845 254.771 57.795 254.886 57.757 254.965 C 57.5 255.515 57.688 256.147 58.181 256.385 C 58.678 256.624 59.294 256.372 59.56 255.821 C 59.561 255.821 59.562 255.82 59.562 255.819 C 59.563 255.819 59.562 255.818 59.562 255.817 C 59.6 255.739 59.654 255.636 59.686 255.563 C 59.828 255.239 59.875 254.961 59.974 254.648 C 60.238 253.984 60.384 253.287 60.747 252.853 C 60.847 252.734 61.009 252.689 61.178 252.644 L 61.404 252.234 C 63.722 253.123 66.316 253.362 68.908 252.774 C 69.499 252.639 70.07 252.466 70.622 252.257 C 70.685 252.37 70.803 252.587 70.835 252.641 C 71.006 252.697 71.193 252.726 71.345 252.951 C 71.617 253.416 71.803 253.966 72.03 254.63 C 72.13 254.944 72.179 255.222 72.32 255.546 C 72.353 255.62 72.406 255.724 72.444 255.802 C 72.71 256.354 73.328 256.607 73.825 256.368 C 74.318 256.13 74.507 255.498 74.25 254.948 C 74.212 254.869 74.159 254.754 74.119 254.68 C 73.954 254.367 73.767 254.157 73.584 253.883 C 73.206 253.292 72.892 252.8 72.698 252.298 C 72.617 252.038 72.712 251.877 72.775 251.709 C 72.737 251.665 72.656 251.421 72.608 251.305 C 75.371 249.674 77.409 247.07 78.367 244.062 C 78.496 244.082 78.72 244.122 78.793 244.137 C 78.944 244.038 79.082 243.908 79.353 243.93 C 79.886 244.007 80.433 244.205 81.094 244.442 C 81.401 244.56 81.649 244.696 81.99 244.788 C 82.063 244.807 82.166 244.825 82.249 244.843 C 82.255 244.845 82.261 244.848 82.268 244.849 C 82.272 244.85 82.278 244.851 82.283 244.852 C 82.875 244.979 83.45 244.655 83.572 244.122 C 83.693 243.589 83.315 243.047 82.727 242.905 C 82.641 242.886 82.52 242.853 82.436 242.837 C 82.089 242.771 81.806 242.787 81.478 242.76 C 80.78 242.687 80.201 242.627 79.688 242.466 C 79.478 242.384 79.329 242.135 79.256 242.032 L 78.853 241.915 C 79.062 240.402 79.006 238.827 78.644 237.252 C 78.279 235.662 77.633 234.207 76.772 232.926 C 76.876 232.832 77.071 232.659 77.127 232.608 C 77.143 232.429 77.129 232.241 77.314 232.042 C 77.707 231.673 78.202 231.368 78.8 230.999 C 79.083 230.832 79.345 230.724 79.63 230.514 C 79.694 230.467 79.782 230.391 79.85 230.337 C 80.329 229.955 80.439 229.296 80.095 228.864 C 79.751 228.433 79.085 228.393 78.606 228.775 C 78.537 228.829 78.445 228.899 78.384 228.952 C 78.115 229.183 77.95 229.411 77.724 229.65 C 77.232 230.15 76.824 230.568 76.377 230.868 C 76.184 230.981 75.9 230.942 75.771 230.935 L 75.391 231.206 C 73.225 228.934 70.276 227.482 67.1 227.2 C 67.091 227.067 67.08 226.826 67.077 226.754 C 66.947 226.629 66.79 226.523 66.75 226.254 C 66.707 225.717 66.779 225.14 66.863 224.442 C 66.91 224.117 66.987 223.846 67 223.493 C 67.003 223.412 66.998 223.296 66.998 223.209 C 66.998 222.596 66.551 222.099 65.999 222.099 L 65.999 222.099 L 65.999 222.099 Z  M 64.748 229.846 L 64.452 235.086 L 64.43 235.096 C 64.41 235.565 64.025 235.939 63.551 235.939 C 63.357 235.939 63.178 235.877 63.032 235.771 L 63.024 235.775 L 58.728 232.729 C 60.048 231.431 61.737 230.472 63.683 230.03 C 64.039 229.949 64.394 229.889 64.748 229.846 Z  M 67.252 229.846 C 69.524 230.126 71.626 231.155 73.236 232.732 L 68.968 235.758 L 68.953 235.751 C 68.574 236.028 68.04 235.96 67.745 235.589 C 67.624 235.438 67.56 235.259 67.553 235.079 L 67.548 235.077 L 67.252 229.846 L 67.252 229.846 Z  M 57.17 234.687 L 61.092 238.195 L 61.088 238.216 C 61.442 238.524 61.494 239.058 61.199 239.429 C 61.078 239.58 60.916 239.682 60.742 239.73 L 60.738 239.747 L 55.71 241.198 C 55.454 238.858 56.006 236.583 57.17 234.687 Z  M 74.8 234.689 C 75.383 235.633 75.824 236.688 76.087 237.832 C 76.347 238.962 76.412 240.091 76.305 241.181 L 71.251 239.725 L 71.247 239.704 C 70.794 239.58 70.516 239.12 70.622 238.658 C 70.665 238.469 70.765 238.309 70.901 238.191 L 70.899 238.18 L 74.8 234.689 L 74.8 234.689 L 74.8 234.689 Z  M 65.194 238.466 L 66.801 238.466 L 67.8 239.715 L 67.442 241.273 L 65.999 241.966 L 64.552 241.27 L 64.193 239.713 L 65.194 238.466 L 65.194 238.466 Z  M 70.346 242.739 C 70.415 242.735 70.483 242.741 70.549 242.754 L 70.558 242.743 L 75.759 243.622 C 74.997 245.761 73.541 247.613 71.595 248.853 L 69.576 243.977 L 69.582 243.968 C 69.397 243.537 69.582 243.032 70.009 242.826 C 70.118 242.774 70.232 242.745 70.346 242.739 L 70.346 242.739 L 70.346 242.739 Z  M 61.611 242.76 C 62.008 242.766 62.364 243.041 62.456 243.445 C 62.499 243.634 62.478 243.822 62.407 243.987 L 62.422 244.006 L 60.424 248.834 C 58.557 247.636 57.069 245.841 56.273 243.639 L 61.43 242.764 L 61.438 242.775 C 61.496 242.764 61.554 242.759 61.611 242.76 L 61.611 242.76 L 61.611 242.76 Z  M 65.967 244.875 C 66.105 244.87 66.245 244.898 66.379 244.963 C 66.554 245.047 66.689 245.179 66.774 245.338 L 66.793 245.338 L 69.335 249.931 C 69.005 250.042 68.666 250.136 68.319 250.215 C 66.375 250.656 64.437 250.522 62.682 249.925 L 65.218 245.34 L 65.222 245.34 C 65.374 245.056 65.663 244.886 65.967 244.875 Z " fill="rgb(255,255,255)" vector-effect="non-scaling-stroke" stroke-width="0.25" stroke="rgb(255,255,255)" stroke-opacity="100" stroke-linejoin="miter" stroke-linecap="butt" stroke-miterlimit="4"/></g><g id="Opertor"><g id="Group"><path d=" M 229.946 148.73 C 233.82 148.73 237.07 151.719 238.057 155.801 C 238.317 156.841 239.227 157.569 240.293 157.569 L 240.293 157.569 C 241.775 157.569 242.893 156.191 242.581 154.735 C 241.151 148.236 236.03 143.4 229.946 143.4 C 223.888 143.4 218.793 148.184 217.311 154.631 C 216.973 156.087 218.091 157.465 219.573 157.465 L 219.573 157.465 C 220.638 157.465 221.574 156.737 221.834 155.723 C 222.848 151.693 226.098 148.73 229.946 148.73 Z " fill="rgb(255,255,255)"/><path d=" M 229.946 168.176 C 226.072 168.176 222.822 165.187 221.834 161.105 C 221.574 160.065 220.664 159.337 219.599 159.337 L 219.599 159.337 C 218.117 159.337 216.999 160.715 217.311 162.171 C 218.741 168.67 223.862 173.48 229.946 173.48 C 236.004 173.48 241.099 168.722 242.555 162.249 C 242.893 160.793 241.775 159.415 240.293 159.415 L 240.293 159.415 C 239.227 159.415 238.291 160.143 238.031 161.157 C 237.044 165.213 233.794 168.176 229.946 168.176 Z " fill="rgb(255,255,255)"/><path d=" M 223.784 158.583 C 223.784 154.795 226.545 151.719 229.946 151.719 C 233.347 151.719 236.108 154.795 236.108 158.583 C 236.108 162.371 233.347 165.447 229.946 165.447 C 226.545 165.447 223.784 162.371 223.784 158.583 Z " fill="rgb(255,255,255)"/></g><path d=" M 258.546 145.883 L 258.546 145.883 Q 260.984 145.883 262.364 146.619 L 262.364 146.619 L 262.364 146.619 Q 263.744 147.355 263.744 148.459 L 263.744 148.459 L 263.744 148.459 Q 263.744 148.781 263.698 148.919 L 263.698 148.919 L 263.698 148.919 Q 263.284 150.391 261.858 150.391 L 261.858 150.391 L 261.858 150.391 Q 261.628 150.391 261.168 150.299 L 261.168 150.299 L 261.168 150.299 Q 259.328 149.977 258.178 149.977 L 258.178 149.977 L 258.178 149.977 Q 254.866 149.977 252.842 151.495 L 252.842 151.495 L 252.842 151.495 Q 250.818 153.013 250.818 155.589 L 250.818 155.589 L 250.818 169.021 L 250.818 169.021 Q 250.818 170.125 250.243 170.723 L 250.243 170.723 L 250.243 170.723 Q 249.668 171.321 248.518 171.321 L 248.518 171.321 L 248.518 171.321 Q 247.414 171.321 246.816 170.746 L 246.816 170.746 L 246.816 170.746 Q 246.218 170.171 246.218 169.021 L 246.218 169.021 L 246.218 148.459 L 246.218 148.459 Q 246.218 147.355 246.816 146.757 L 246.816 146.757 L 246.816 146.757 Q 247.414 146.159 248.518 146.159 L 248.518 146.159 L 248.518 146.159 Q 250.818 146.159 250.818 148.459 L 250.818 148.459 L 250.818 149.333 L 250.818 149.333 Q 252.198 147.723 254.222 146.803 L 254.222 146.803 L 254.222 146.803 Q 256.246 145.883 258.546 145.883 L 258.546 145.883 L 258.546 145.883 L 258.546 145.883 Z  M 61.206 134.935 L 61.206 134.935 Q 66.496 134.935 70.659 137.281 L 70.659 137.281 L 70.659 137.281 Q 74.822 139.627 77.145 143.813 L 77.145 143.813 L 77.145 143.813 Q 79.468 147.999 79.468 153.335 L 79.468 153.335 L 79.468 153.335 Q 79.468 158.671 77.145 162.88 L 77.145 162.88 L 77.145 162.88 Q 74.822 167.089 70.682 169.435 L 70.682 169.435 L 70.682 169.435 Q 66.542 171.781 61.206 171.781 L 61.206 171.781 L 61.206 171.781 Q 55.87 171.781 51.707 169.435 L 51.707 169.435 L 51.707 169.435 Q 47.544 167.089 45.244 162.88 L 45.244 162.88 L 45.244 162.88 Q 42.944 158.671 42.944 153.335 L 42.944 153.335 L 42.944 153.335 Q 42.944 147.999 45.244 143.813 L 45.244 143.813 L 45.244 143.813 Q 47.544 139.627 51.707 137.281 L 51.707 137.281 L 51.707 137.281 Q 55.87 134.935 61.206 134.935 L 61.206 134.935 L 61.206 134.935 L 61.206 134.935 Z  M 61.206 139.259 L 61.206 139.259 Q 57.25 139.259 54.145 141.099 L 54.145 141.099 L 54.145 141.099 Q 51.04 142.939 49.292 146.159 L 49.292 146.159 L 49.292 146.159 Q 47.544 149.379 47.544 153.335 L 47.544 153.335 L 47.544 153.335 Q 47.544 157.291 49.292 160.511 L 49.292 160.511 L 49.292 160.511 Q 51.04 163.731 54.168 165.594 L 54.168 165.594 L 54.168 165.594 Q 57.296 167.457 61.206 167.457 L 61.206 167.457 L 61.206 167.457 Q 65.116 167.457 68.244 165.594 L 68.244 165.594 L 68.244 165.594 Q 71.372 163.731 73.12 160.511 L 73.12 160.511 L 73.12 160.511 Q 74.868 157.291 74.868 153.335 L 74.868 153.335 L 74.868 153.335 Q 74.868 149.379 73.12 146.159 L 73.12 146.159 L 73.12 146.159 Q 71.372 142.939 68.267 141.099 L 68.267 141.099 L 68.267 141.099 Q 65.162 139.259 61.206 139.259 L 61.206 139.259 L 61.206 139.259 L 61.206 139.259 Z  M 99.156 145.975 L 99.156 145.975 Q 102.698 145.975 105.619 147.654 L 105.619 147.654 L 105.619 147.654 Q 108.54 149.333 110.196 152.254 L 110.196 152.254 L 110.196 152.254 Q 111.852 155.175 111.852 158.763 L 111.852 158.763 L 111.852 158.763 Q 111.852 162.351 110.311 165.272 L 110.311 165.272 L 110.311 165.272 Q 108.77 168.193 106.079 169.849 L 106.079 169.849 L 106.079 169.849 Q 103.388 171.505 100.076 171.505 L 100.076 171.505 L 100.076 171.505 Q 97.408 171.505 95.108 170.401 L 95.108 170.401 L 95.108 170.401 Q 92.808 169.297 91.198 167.319 L 91.198 167.319 L 91.198 179.739 L 91.198 179.739 Q 91.198 180.797 90.554 181.441 L 90.554 181.441 L 90.554 181.441 Q 89.91 182.085 88.852 182.085 L 88.852 182.085 L 88.852 182.085 Q 87.84 182.085 87.173 181.441 L 87.173 181.441 L 87.173 181.441 Q 86.506 180.797 86.506 179.739 L 86.506 179.739 L 86.506 158.763 L 86.506 158.763 Q 86.506 155.175 88.185 152.254 L 88.185 152.254 L 88.185 152.254 Q 89.864 149.333 92.739 147.654 L 92.739 147.654 L 92.739 147.654 Q 95.614 145.975 99.156 145.975 L 99.156 145.975 L 99.156 145.975 L 99.156 145.975 Z  M 99.156 167.365 L 99.156 167.365 Q 101.456 167.365 103.319 166.238 L 103.319 166.238 L 103.319 166.238 Q 105.182 165.111 106.263 163.156 L 106.263 163.156 L 106.263 163.156 Q 107.344 161.201 107.344 158.763 L 107.344 158.763 L 107.344 158.763 Q 107.344 156.325 106.263 154.347 L 106.263 154.347 L 106.263 154.347 Q 105.182 152.369 103.319 151.242 L 103.319 151.242 L 103.319 151.242 Q 101.456 150.115 99.156 150.115 L 99.156 150.115 L 99.156 150.115 Q 96.856 150.115 94.993 151.242 L 94.993 151.242 L 94.993 151.242 Q 93.13 152.369 92.072 154.347 L 92.072 154.347 L 92.072 154.347 Q 91.014 156.325 91.014 158.763 L 91.014 158.763 L 91.014 158.763 Q 91.014 161.201 92.072 163.156 L 92.072 163.156 L 92.072 163.156 Q 93.13 165.111 94.993 166.238 L 94.993 166.238 L 94.993 166.238 Q 96.856 167.365 99.156 167.365 L 99.156 167.365 L 99.156 167.365 L 99.156 167.365 Z  M 141.43 158.349 L 141.43 158.349 Q 141.43 159.223 140.832 159.798 L 140.832 159.798 L 140.832 159.798 Q 140.234 160.373 139.314 160.373 L 139.314 160.373 L 121.834 160.373 L 121.834 160.373 Q 122.34 163.593 124.755 165.571 L 124.755 165.571 L 124.755 165.571 Q 127.17 167.549 130.666 167.549 L 130.666 167.549 L 130.666 167.549 Q 132.046 167.549 133.541 167.043 L 133.541 167.043 L 133.541 167.043 Q 135.036 166.537 136.002 165.801 L 136.002 165.801 L 136.002 165.801 Q 136.646 165.295 137.52 165.295 L 137.52 165.295 L 137.52 165.295 Q 138.394 165.295 138.9 165.755 L 138.9 165.755 L 138.9 165.755 Q 139.728 166.445 139.728 167.319 L 139.728 167.319 L 139.728 167.319 Q 139.728 168.147 138.992 168.699 L 138.992 168.699 L 138.992 168.699 Q 137.428 169.941 135.105 170.723 L 135.105 170.723 L 135.105 170.723 Q 132.782 171.505 130.666 171.505 L 130.666 171.505 L 130.666 171.505 Q 126.894 171.505 123.904 169.872 L 123.904 169.872 L 123.904 169.872 Q 120.914 168.239 119.235 165.341 L 119.235 165.341 L 119.235 165.341 Q 117.556 162.443 117.556 158.763 L 117.556 158.763 L 117.556 158.763 Q 117.556 155.083 119.143 152.162 L 119.143 152.162 L 119.143 152.162 Q 120.73 149.241 123.559 147.608 L 123.559 147.608 L 123.559 147.608 Q 126.388 145.975 129.976 145.975 L 129.976 145.975 L 129.976 145.975 Q 133.518 145.975 136.094 147.539 L 136.094 147.539 L 136.094 147.539 Q 138.67 149.103 140.05 151.909 L 140.05 151.909 L 140.05 151.909 Q 141.43 154.715 141.43 158.349 L 141.43 158.349 L 141.43 158.349 L 141.43 158.349 Z  M 129.976 149.931 L 129.976 149.931 Q 126.618 149.931 124.525 151.771 L 124.525 151.771 L 124.525 151.771 Q 122.432 153.611 121.88 156.693 L 121.88 156.693 L 137.198 156.693 L 137.198 156.693 Q 136.784 153.611 134.898 151.771 L 134.898 151.771 L 134.898 151.771 Q 133.012 149.931 129.976 149.931 L 129.976 149.931 L 129.976 149.931 L 129.976 149.931 Z  M 159.738 145.883 L 159.738 145.883 Q 162.176 145.883 163.556 146.619 L 163.556 146.619 L 163.556 146.619 Q 164.936 147.355 164.936 148.459 L 164.936 148.459 L 164.936 148.459 Q 164.936 148.781 164.89 148.919 L 164.89 148.919 L 164.89 148.919 Q 164.476 150.391 163.05 150.391 L 163.05 150.391 L 163.05 150.391 Q 162.82 150.391 162.36 150.299 L 162.36 150.299 L 162.36 150.299 Q 160.52 149.977 159.37 149.977 L 159.37 149.977 L 159.37 149.977 Q 156.058 149.977 154.034 151.495 L 154.034 151.495 L 154.034 151.495 Q 152.01 153.013 152.01 155.589 L 152.01 155.589 L 152.01 169.021 L 152.01 169.021 Q 152.01 170.125 151.435 170.723 L 151.435 170.723 L 151.435 170.723 Q 150.86 171.321 149.71 171.321 L 149.71 171.321 L 149.71 171.321 Q 148.606 171.321 148.008 170.746 L 148.008 170.746 L 148.008 170.746 Q 147.41 170.171 147.41 169.021 L 147.41 169.021 L 147.41 148.459 L 147.41 148.459 Q 147.41 147.355 148.008 146.757 L 148.008 146.757 L 148.008 146.757 Q 148.606 146.159 149.71 146.159 L 149.71 146.159 L 149.71 146.159 Q 152.01 146.159 152.01 148.459 L 152.01 148.459 L 152.01 149.333 L 152.01 149.333 Q 153.39 147.723 155.414 146.803 L 155.414 146.803 L 155.414 146.803 Q 157.438 145.883 159.738 145.883 L 159.738 145.883 L 159.738 145.883 L 159.738 145.883 Z  M 181.174 145.975 L 181.174 145.975 Q 184.716 145.975 187.591 147.654 L 187.591 147.654 L 187.591 147.654 Q 190.466 149.333 192.145 152.254 L 192.145 152.254 L 192.145 152.254 Q 193.824 155.175 193.824 158.763 L 193.824 158.763 L 193.824 169.021 L 193.824 169.021 Q 193.824 170.033 193.157 170.7 L 193.157 170.7 L 193.157 170.7 Q 192.49 171.367 191.478 171.367 L 191.478 171.367 L 191.478 171.367 Q 190.466 171.367 189.799 170.7 L 189.799 170.7 L 189.799 170.7 Q 189.132 170.033 189.132 169.021 L 189.132 169.021 L 189.132 167.319 L 189.132 167.319 Q 187.522 169.297 185.222 170.401 L 185.222 170.401 L 185.222 170.401 Q 182.922 171.505 180.254 171.505 L 180.254 171.505 L 180.254 171.505 Q 176.942 171.505 174.251 169.849 L 174.251 169.849 L 174.251 169.849 Q 171.56 168.193 170.019 165.272 L 170.019 165.272 L 170.019 165.272 Q 168.478 162.351 168.478 158.763 L 168.478 158.763 L 168.478 158.763 Q 168.478 155.175 170.134 152.254 L 170.134 152.254 L 170.134 152.254 Q 171.79 149.333 174.711 147.654 L 174.711 147.654 L 174.711 147.654 Q 177.632 145.975 181.174 145.975 L 181.174 145.975 L 181.174 145.975 L 181.174 145.975 Z  M 181.174 167.365 L 181.174 167.365 Q 183.474 167.365 185.337 166.238 L 185.337 166.238 L 185.337 166.238 Q 187.2 165.111 188.258 163.156 L 188.258 163.156 L 188.258 163.156 Q 189.316 161.201 189.316 158.763 L 189.316 158.763 L 189.316 158.763 Q 189.316 156.325 188.258 154.347 L 188.258 154.347 L 188.258 154.347 Q 187.2 152.369 185.337 151.242 L 185.337 151.242 L 185.337 151.242 Q 183.474 150.115 181.174 150.115 L 181.174 150.115 L 181.174 150.115 Q 178.874 150.115 177.011 151.242 L 177.011 151.242 L 177.011 151.242 Q 175.148 152.369 174.067 154.347 L 174.067 154.347 L 174.067 154.347 Q 172.986 156.325 172.986 158.763 L 172.986 158.763 L 172.986 158.763 Q 172.986 161.201 174.067 163.156 L 174.067 163.156 L 174.067 163.156 Q 175.148 165.111 177.011 166.238 L 177.011 166.238 L 177.011 166.238 Q 178.874 167.365 181.174 167.365 L 181.174 167.365 L 181.174 167.365 L 181.174 167.365 Z  M 211.534 166.721 L 211.534 166.721 Q 212.362 166.721 212.937 167.365 L 212.937 167.365 L 212.937 167.365 Q 213.512 168.009 213.512 169.021 L 213.512 169.021 L 213.512 169.021 Q 213.512 170.033 212.753 170.677 L 212.753 170.677 L 212.753 170.677 Q 211.994 171.321 210.798 171.321 L 210.798 171.321 L 209.97 171.321 L 209.97 171.321 Q 207.716 171.321 205.853 170.148 L 205.853 170.148 L 205.853 170.148 Q 203.99 168.975 202.932 166.951 L 202.932 166.951 L 202.932 166.951 Q 201.874 164.927 201.874 162.397 L 201.874 162.397 L 201.874 151.035 L 199.758 151.035 L 199.758 151.035 Q 198.792 151.035 198.194 150.483 L 198.194 150.483 L 198.194 150.483 Q 197.596 149.931 197.596 149.103 L 197.596 149.103 L 197.596 149.103 Q 197.596 148.183 198.194 147.631 L 198.194 147.631 L 198.194 147.631 Q 198.792 147.079 199.758 147.079 L 199.758 147.079 L 201.874 147.079 L 201.874 140.455 L 201.874 140.455 Q 201.874 139.443 202.518 138.799 L 202.518 138.799 L 202.518 138.799 Q 203.162 138.155 204.174 138.155 L 204.174 138.155 L 204.174 138.155 Q 205.186 138.155 205.83 138.799 L 205.83 138.799 L 205.83 138.799 Q 206.474 139.443 206.474 140.455 L 206.474 140.455 L 206.474 147.079 L 210.384 147.079 L 210.384 147.079 Q 211.35 147.079 211.948 147.631 L 211.948 147.631 L 211.948 147.631 Q 212.546 148.183 212.546 149.103 L 212.546 149.103 L 212.546 149.103 Q 212.546 149.931 211.948 150.483 L 211.948 150.483 L 211.948 150.483 Q 211.35 151.035 210.384 151.035 L 210.384 151.035 L 206.474 151.035 L 206.474 162.397 L 206.474 162.397 Q 206.474 164.237 207.486 165.479 L 207.486 165.479 L 207.486 165.479 Q 208.498 166.721 209.97 166.721 L 209.97 166.721 L 211.534 166.721 L 211.534 166.721 L 211.534 166.721 Z " fill-rule="evenodd" fill="rgb(255,255,255)"/></g></g></g></g></svg>