<?xml version="1.0" standalone="no"?><!-- Generator: Gravit.io --><svg xmlns="http://www.w3.org/2000/svg" xmlns:xlink="http://www.w3.org/1999/xlink" style="isolation:isolate" viewBox="0 0 177 80" width="177" height="80"><defs><clipPath id="_clipPath_DaErTG9wT1uNqqU86meLbb2b3L3CUjcS"><rect width="177" height="80"/></clipPath></defs><g clip-path="url(#_clipPath_DaErTG9wT1uNqqU86meLbb2b3L3CUjcS)"><g id="Capa_6"><path d=" M 160.705 66.212 L 160.705 64.078 C 160.705 61.631 158.726 59.652 156.279 59.652 L 138.421 59.652 C 135.974 59.652 133.996 57.674 133.996 55.227 L 133.996 52.728 C 133.996 50.281 132.017 48.302 129.57 48.302 L 127.435 48.302 C 124.988 48.302 123.01 50.281 123.01 52.728 L 123.01 66.212 C 123.01 68.659 124.988 70.638 127.435 70.638 L 156.279 70.69 C 158.674 70.69 160.705 68.659 160.705 66.212 Z " fill="rgb(67,30,117)"/><path d=" M 160.705 14.148 L 160.705 16.23 C 160.705 18.729 158.674 20.708 156.227 20.708 L 138.473 20.708 C 135.974 20.708 133.996 22.738 133.996 25.185 L 133.996 27.632 C 133.996 30.132 131.965 32.11 129.518 32.11 L 127.435 32.11 C 124.936 32.11 122.958 30.079 122.958 27.632 L 122.958 14.148 C 122.958 11.649 124.988 9.67 127.435 9.67 L 156.227 9.618 C 158.674 9.618 160.705 11.649 160.705 14.148 Z " fill="rgb(67,30,117)"/><path d=" M 146.856 38.982 L 146.856 41.273 C 146.856 43.668 144.877 45.647 142.482 45.647 L 127.227 45.647 C 124.832 45.647 122.854 43.668 122.854 41.273 L 122.854 38.982 C 122.854 36.588 124.832 34.609 127.227 34.609 L 142.482 34.609 C 144.929 34.609 146.856 36.588 146.856 38.982 Z " fill="rgb(67,30,117)"/><path d=" M 2.376 67.93 L 4.147 69.388 C 6.021 70.95 8.832 70.69 10.394 68.868 L 52.775 18.365 C 54.337 16.491 54.076 13.679 52.254 12.117 L 50.484 10.659 C 48.61 9.097 45.798 9.358 44.236 11.18 L 1.856 61.683 C 0.242 63.557 0.502 66.316 2.376 67.93 Z " fill="rgb(67,30,117)"/><path d=" M 86.617 20.968 C 94.374 20.968 100.883 26.956 102.861 35.13 C 103.382 37.212 105.204 38.67 107.339 38.67 L 107.339 38.67 C 110.306 38.67 112.545 35.911 111.92 32.995 C 109.057 19.979 98.8 10.295 86.617 10.295 C 74.486 10.295 64.281 19.875 61.313 32.787 C 60.637 35.702 62.875 38.462 65.843 38.462 L 65.843 38.462 C 67.978 38.462 69.852 37.004 70.373 34.974 C 72.403 26.903 78.911 20.968 86.617 20.968 Z " fill="rgb(67,30,117)"/><path d=" M 86.617 59.912 C 78.859 59.912 72.351 53.925 70.373 45.751 C 69.852 43.668 68.03 42.21 65.895 42.21 L 65.895 42.21 C 62.927 42.21 60.689 44.97 61.313 47.886 C 64.177 60.902 74.434 70.534 86.617 70.534 C 98.748 70.534 108.953 61.006 111.868 48.042 C 112.545 45.126 110.306 42.367 107.339 42.367 L 107.339 42.367 C 105.204 42.367 103.33 43.824 102.809 45.855 C 100.83 53.977 94.322 59.912 86.617 59.912 Z " fill="rgb(255,225,0)"/><path d=" M 167.421 68.92 C 168.306 69.909 169.608 70.534 171.066 70.534 L 171.69 70.534 C 173.148 70.534 174.45 69.909 175.387 68.868 L 171.43 65.952 L 167.421 68.92 Z " fill="rgb(250,214,26)"/><path d=" M 175.335 61.631 C 174.45 60.641 173.148 60.017 171.69 60.017 L 171.066 60.017 C 169.608 60.017 168.358 60.641 167.421 61.631 L 171.378 64.546 L 175.335 61.631 Z " fill="rgb(250,214,26)"/><path d=" M 166.744 62.568 C 166.328 63.297 166.119 64.078 166.119 64.963 L 166.119 65.587 C 166.119 66.473 166.328 67.254 166.744 67.982 L 170.389 65.275 L 166.744 62.568 Z " fill="rgb(250,214,26)"/><path d=" M 176.012 67.878 C 176.376 67.201 176.584 66.368 176.584 65.535 L 176.584 64.911 C 176.584 64.026 176.376 63.245 175.96 62.516 L 172.367 65.171 L 176.012 67.878 Z " fill="rgb(250,214,26)"/><path d=" M 38.197 70.534 L 27.524 58.194 L 16.382 70.534" fill="rgb(208,210,211)"/><path d=" M 16.382 9.618 L 27.055 21.957 L 38.197 9.618" fill="rgb(208,210,211)"/><path d=" M 74.278 40.701 C 74.278 33.115 79.807 26.956 86.617 26.956 C 93.427 26.956 98.956 33.115 98.956 40.701 C 98.956 48.287 93.427 54.446 86.617 54.446 C 79.807 54.446 74.278 48.287 74.278 40.701 Z " fill="rgb(208,210,211)"/><path d=" M 155.602 23.363 L 138.265 23.363 L 138.265 28.361" fill="rgb(208,210,211)"/><path d=" M 155.602 56.945 L 138.265 56.945 L 138.265 51.947" fill="rgb(208,210,211)"/></g><g id="Capa_7"><path d=" M 1.075 12.273 C 1.127 12.221 1.179 12.169 1.179 12.169 L 3.47 10.139 C 5.188 8.889 7.739 9.045 9.197 10.659 L 22.994 26.747 C 24.296 28.413 24.243 30.34 22.89 32.058 C 21.953 33.203 21.38 34.088 20.755 34.661 C 19.089 36.275 16.954 36.015 15.34 34.401 L 0.919 17.792 C -0.331 16.23 -0.331 13.887 1.075 12.273 Z " fill="rgb(67,30,117)"/><path d=" M 53.4 67.618 C 53.348 67.67 53.295 67.722 53.295 67.722 L 51.005 69.753 C 49.287 71.002 46.735 70.846 45.278 69.232 L 31.48 53.144 C 30.179 51.478 30.231 49.552 31.585 47.833 C 32.522 46.688 33.094 45.803 33.719 45.23 C 35.385 43.616 37.52 43.877 39.134 45.491 L 53.556 62.047 C 54.753 63.609 54.805 66.004 53.4 67.618 Z " fill="rgb(67,30,117)"/></g></g></svg>